<svg width="30" height="30" viewBox="0 0 30 30" fill="none" xmlns="http://www.w3.org/2000/svg">
<g clip-path="url(#clip0_73_488)">
<path d="M30 23.3246C30 27.0117 27.011 30 23.3252 30H6.67482C2.989 30 0 27.0117 0 23.3246V6.67545C0 2.98825 2.989 0 6.67482 0H23.3252C27.011 0 30 2.98825 30 6.67545V23.3246Z" fill="#F9E000"/>
<path d="M14.9063 5.64819C8.94662 5.64819 4.11573 9.44479 4.11573 14.1308C4.11573 17.1798 6.16137 19.852 9.2339 21.3471C9.00774 22.1839 8.41687 24.382 8.2987 24.852C8.152 25.4355 8.51263 25.4274 8.75102 25.2714C8.93643 25.1478 11.7074 23.2738 12.9034 22.4655C13.5534 22.5607 14.2217 22.6113 14.9063 22.6113C20.8659 22.6113 25.6968 18.8147 25.6968 14.1308C25.6968 9.44682 20.8659 5.64819 14.9063 5.64819Z" fill="#371C1D"/>
<path d="M7.37775 12.5669H8.48819C8.48819 12.5669 8.4943 15.5997 8.48819 16.3068C8.48819 16.8234 9.64344 16.8294 9.6414 16.3149L9.64548 12.6074C9.64548 12.6074 10.0183 12.6094 10.7498 12.6094C11.4405 12.6094 11.4405 11.5296 10.7498 11.5296C9.97148 11.5296 7.37164 11.5073 7.37164 11.5073C6.71964 11.5073 6.72168 12.5669 7.37164 12.5669" fill="#F9E000"/>
<mask id="mask0_73_488" style="mask-type:luminance" maskUnits="userSpaceOnUse" x="6" y="11" width="6" height="6">
<path d="M7.37775 12.5669H8.48819C8.48819 12.5669 8.4943 15.5997 8.48819 16.3068C8.48819 16.8234 9.64344 16.8294 9.6414 16.3149L9.64548 12.6074C9.64548 12.6074 10.0183 12.6094 10.7498 12.6094C11.4405 12.6094 11.4405 11.5296 10.7498 11.5296C9.97148 11.5296 7.37164 11.5073 7.37164 11.5073C6.71964 11.5073 6.72168 12.5669 7.37164 12.5669" fill="white"/>
</mask>
<g mask="url(#mask0_73_488)">
<path d="M11.4425 11.5093H6.72372V16.8314H11.4425V11.5093Z" fill="#F9E000"/>
</g>
<path d="M12.6936 12.7633L13.3109 14.688H12.0232L12.6936 12.7633ZM12.0008 11.8618C11.7278 12.4594 10.7396 15.2856 10.4136 16.0352C10.1773 16.5761 11.1981 17.0178 11.4344 16.4769L11.6565 15.705H13.6879C13.6879 15.705 13.6186 15.7374 13.8875 16.4445C14.1055 17.0178 15.161 16.6207 14.943 16.0474C14.6312 15.2289 13.5514 12.2791 13.3537 11.8618C13.2641 11.6693 12.9381 11.5295 12.6223 11.5295C12.3615 11.5295 12.1068 11.6248 11.9988 11.8618" fill="#F9E000"/>
<mask id="mask1_73_488" style="mask-type:luminance" maskUnits="userSpaceOnUse" x="10" y="11" width="5" height="6">
<path d="M12.6936 12.7633L13.3109 14.688H12.0232L12.6936 12.7633ZM12.0008 11.8618C11.7278 12.4594 10.7396 15.2856 10.4136 16.0352C10.1773 16.5761 11.1981 17.0178 11.4344 16.4769L11.6565 15.705H13.6879C13.6879 15.705 13.6186 15.7374 13.8875 16.4445C14.1055 17.0178 15.161 16.6207 14.943 16.0474C14.6312 15.2289 13.5514 12.2791 13.3537 11.8618C13.2641 11.6693 12.9381 11.5295 12.6223 11.5295C12.3615 11.5295 12.1068 11.6248 11.9988 11.8618" fill="white"/>
</mask>
<g mask="url(#mask1_73_488)">
<path d="M15.163 11.5315H10.1752V17.0218H15.163V11.5315Z" fill="#F9E000"/>
</g>
<path d="M15.3341 12.038C15.3341 12.9983 15.3403 16.094 15.3403 16.094C15.3403 16.094 15.2506 16.7098 15.7824 16.7098C16.3142 16.7098 17.4898 16.7038 18.0114 16.7038C18.533 16.7038 18.531 15.5996 18.0094 15.5996C17.4878 15.5996 16.5342 15.5936 16.5342 15.5936C16.5342 15.5936 16.5383 12.7309 16.5363 12.034C16.5363 11.6977 16.2347 11.5295 15.9352 11.5295C15.6357 11.5295 15.3321 11.6997 15.3341 12.036" fill="#F9E000"/>
<mask id="mask2_73_488" style="mask-type:luminance" maskUnits="userSpaceOnUse" x="15" y="11" width="4" height="6">
<path d="M15.3341 12.038C15.3341 12.9983 15.3403 16.094 15.3403 16.094C15.3403 16.094 15.2506 16.7098 15.7824 16.7098C16.3142 16.7098 17.4898 16.7038 18.0114 16.7038C18.533 16.7038 18.531 15.5996 18.0094 15.5996C17.4878 15.5996 16.5342 15.5936 16.5342 15.5936C16.5342 15.5936 16.5383 12.7309 16.5363 12.034C16.5363 11.6977 16.2347 11.5295 15.9352 11.5295C15.6357 11.5295 15.3321 11.6997 15.3341 12.036" fill="white"/>
</mask>
<g mask="url(#mask2_73_488)">
<path d="M18.533 11.5315H15.2506V16.7098H18.533V11.5315Z" fill="#F9E000"/>
</g>
<path d="M18.6716 11.8862C18.6838 12.3076 18.6573 16.1163 18.6573 16.398C18.6573 16.8437 19.7983 16.8416 19.7983 16.398C19.7983 15.8813 19.7983 14.8988 19.7983 14.8988L20.1324 14.6313L21.5974 16.6168C21.8928 17.0057 22.824 16.3027 22.5285 15.9158L20.9739 13.8797C20.9739 13.8797 22.0293 12.7452 22.445 12.3339C22.6875 12.0949 21.9356 11.3412 21.6932 11.5823C21.4588 11.8133 19.8044 13.4604 19.8044 13.4604C19.8044 13.4604 19.8187 12.4271 19.8044 11.8558C19.7983 11.639 19.5314 11.5337 19.2563 11.5337C18.9629 11.5337 18.6634 11.6532 18.6695 11.8862" fill="#F9E000"/>
<mask id="mask3_73_488" style="mask-type:luminance" maskUnits="userSpaceOnUse" x="18" y="11" width="5" height="6">
<path d="M18.6716 11.8862C18.6838 12.3076 18.6573 16.1163 18.6573 16.398C18.6573 16.8437 19.7983 16.8416 19.7983 16.398C19.7983 15.8813 19.7983 14.8988 19.7983 14.8988L20.1324 14.6313L21.5974 16.6168C21.8928 17.0057 22.824 16.3027 22.5285 15.9158L20.9739 13.8797C20.9739 13.8797 22.0293 12.7452 22.445 12.3339C22.6875 12.0949 21.9356 11.3412 21.6932 11.5823C21.4588 11.8133 19.8044 13.4604 19.8044 13.4604C19.8044 13.4604 19.8187 12.4271 19.8044 11.8558C19.7983 11.639 19.5314 11.5337 19.2563 11.5337C18.9629 11.5337 18.6634 11.6532 18.6695 11.8862" fill="white"/>
</mask>
<g mask="url(#mask3_73_488)">
<path d="M22.824 11.3433H18.6573V17.0078H22.824V11.3433Z" fill="#F9E000"/>
</g>
</g>
<defs>
<clipPath id="clip0_73_488">
<rect width="30" height="30" fill="white"/>
</clipPath>
</defs>
</svg>
