<svg width="26" height="26" viewBox="0 0 26 26" fill="none" xmlns="http://www.w3.org/2000/svg">
<path d="M23.9138 0H2.08616C0.934008 0 0 0.934008 0 2.08616V23.9138C0 25.066 0.934008 26 2.08616 26H23.9138C25.066 26 26 25.066 26 23.9138V2.08616C26 0.934008 25.066 0 23.9138 0Z" fill="#EAD532"/>
<path d="M13.4518 4.13707C15.8587 4.22809 17.7487 5.27906 18.9641 7.4259C20.1746 9.56425 20.1367 11.7317 18.8811 13.8616C18.485 14.5327 18.0487 15.1759 17.5282 15.7487C15.9287 17.5109 14.8224 19.5643 14.0494 21.8179C13.9367 22.1468 13.8525 22.5109 13.4399 22.5266C12.9882 22.5448 12.8897 22.1589 12.7724 21.8118C12.0028 19.5315 10.8456 17.4927 9.26271 15.6917C8.18136 14.4623 7.27905 13.0982 7.05258 11.3968C6.61862 8.12615 8.92123 4.89071 12.1024 4.27056C12.5471 4.1844 12.9917 4.12493 13.4506 4.13707H13.4518ZM11.2843 10.7062C11.2831 11.9138 12.2234 12.8944 13.396 12.9077C14.5545 12.9211 15.5315 11.9356 15.5433 10.7402C15.5552 9.506 14.59 8.49993 13.3996 8.50964C12.2281 8.51814 11.2855 9.49751 11.2843 10.7075V10.7062Z" fill="#177AB9"/>
<path d="M11 10.7064C11.0012 9.49646 11.945 8.51709 13.1153 8.5086C14.3045 8.5001 15.2709 9.50496 15.259 10.7392C15.2472 11.9346 14.2713 12.9212 13.1117 12.9067C11.9379 12.8933 10.9976 11.9127 11 10.7052V10.7064Z" fill="#F4DD27"/>
</svg>
