<svg width="26" height="26" viewBox="0 0 26 26" fill="none" xmlns="http://www.w3.org/2000/svg">
<mask id="mask0_73_419" style="mask-type:luminance" maskUnits="userSpaceOnUse" x="0" y="0" width="26" height="26">
<path d="M23.9138 0H2.08617C0.934008 0 0 0.934008 0 2.08617V23.9138C0 25.066 0.934008 26 2.08617 26H23.9138C25.066 26 26 25.066 26 23.9138V2.08617C26 0.934008 25.066 0 23.9138 0Z" fill="white"/>
</mask>
<g mask="url(#mask0_73_419)">
<path d="M25.9951 20.8677C25.9951 22.5085 25.9915 24.1505 26 25.7913C26 25.9648 25.966 25.9988 25.7925 25.9988C17.1966 25.9927 8.60073 25.9939 0.00606796 25.9939C0.00485437 17.4078 0.00606796 8.82039 0 0.23301C0 0.0424757 0.0424757 0 0.23301 0C8.74393 0.00606796 17.2549 0.00606796 25.7658 0C25.9563 0 25.9988 0.0424757 25.9988 0.23301C25.9927 5.77427 25.9939 11.3155 25.9939 16.858C23.0279 16.858 20.0619 16.8604 17.0959 16.858C15.8204 16.858 14.5437 16.8507 13.2682 16.8459C13.9684 15.8204 14.6505 14.7816 15.3726 13.7718C16.0316 12.8495 16.5194 11.8714 16.6954 10.7379C17.1699 7.68204 15.2925 4.59102 12.3301 3.71116C9.7949 2.95874 7.52306 3.5 5.69053 5.43568C4.05825 7.16019 3.6165 9.23301 4.1966 11.5279C4.42476 12.4296 4.93689 13.1796 5.45752 13.932C7.02549 16.1966 8.57767 18.4733 10.1323 20.7464C10.2245 20.8811 10.3265 20.9527 10.4903 20.9126C10.5243 20.915 10.5583 20.9187 10.591 20.9187C15.6444 20.9187 20.6966 20.9187 25.75 20.9187C25.8362 20.9187 25.9163 20.909 25.9927 20.8677H25.9951Z" fill="#F9F9F9"/>
<path d="M13.2694 16.8472C14.5449 16.8508 15.8216 16.8581 17.0971 16.8593C20.0631 16.8605 23.0291 16.8593 25.9951 16.8593V20.869C25.9199 20.9103 25.8386 20.9212 25.7524 20.92C20.699 20.92 15.6468 20.92 10.5934 20.92C10.5595 20.92 10.5255 20.9163 10.4927 20.9139C10.5473 20.7707 10.6286 20.6433 10.7148 20.5171C11.2282 19.7756 11.7354 19.0304 12.2524 18.2913C12.5898 17.8095 12.8932 17.3023 13.2682 16.8459L13.2694 16.8472Z" fill="#3365B0"/>
<path d="M13.2694 16.8472C12.8944 17.3035 12.591 17.8096 12.2536 18.2926C11.7367 19.0317 11.2294 19.7768 10.716 20.5183C10.6286 20.6433 10.5485 20.772 10.4939 20.9152C10.3301 20.9552 10.2269 20.8836 10.1359 20.7489C8.58131 18.4746 7.02913 16.1992 5.46116 13.9346C4.94053 13.1822 4.42718 12.4322 4.20024 11.5305C3.62015 9.23556 4.06189 7.16154 5.69417 5.43823C7.5267 3.50255 9.79854 2.96129 12.3337 3.71372C15.2973 4.59357 17.1735 7.68459 16.699 10.7404C16.5231 11.8739 16.034 12.8521 15.3762 13.7744C14.6541 14.7841 13.9721 15.8229 13.2718 16.8484L13.2694 16.8472ZM11.1723 9.8994C11.0813 9.79867 11.034 9.7562 10.9988 9.70401C10.5704 9.08629 10.1347 8.47343 9.71966 7.846C9.56553 7.61299 9.40413 7.4795 9.1068 7.51348C8.8483 7.5426 8.58252 7.52804 8.3216 7.51833C8.16626 7.51226 8.1165 7.56809 8.1165 7.721C8.12015 9.08265 8.12015 10.4443 8.1165 11.8047C8.1165 11.9431 8.15534 12.0038 8.30097 12.0013C8.63956 11.9977 8.97816 11.9965 9.31553 12.0123C9.51335 12.022 9.55461 11.9419 9.55218 11.7598C9.54248 11.1506 9.54612 10.5426 9.54976 9.93338C9.54976 9.84843 9.51942 9.75255 9.59587 9.66396C9.63228 9.70644 9.66262 9.73556 9.68568 9.76955C10.1614 10.4564 10.642 11.1421 11.108 11.8363C11.1833 11.9492 11.2585 12.0086 11.3871 12.0086C11.7342 12.0086 12.0801 12.005 12.4272 12.0086C12.5583 12.0098 12.6044 11.9589 12.6044 11.829C12.6007 10.4504 12.5995 9.07294 12.6044 7.6943C12.6044 7.53775 12.5328 7.5159 12.4029 7.51833C12.0643 7.52319 11.7257 7.52683 11.3883 7.5159C11.2172 7.50984 11.1699 7.57658 11.1735 7.73799C11.182 8.10935 11.1735 8.48192 11.1735 8.8545C11.1735 9.17974 11.1735 9.50498 11.1735 9.89819L11.1723 9.8994Z" fill="#3EB15B"/>
<path d="M11.1723 9.89923C11.1723 9.50603 11.1723 9.18078 11.1723 8.85554C11.1723 8.48297 11.1796 8.11161 11.1723 7.73904C11.1687 7.57884 11.216 7.51088 11.3871 7.51695C11.7245 7.52787 12.0631 7.52423 12.4017 7.51938C12.5316 7.51695 12.6044 7.53879 12.6032 7.69535C12.5995 9.07399 12.6007 10.4514 12.6032 11.8301C12.6032 11.9599 12.557 12.0109 12.426 12.0097C12.0789 12.0048 11.733 12.0097 11.3859 12.0097C11.2573 12.0097 11.1833 11.9502 11.1068 11.8373C10.6408 11.1432 10.1602 10.4587 9.68447 9.77059C9.66141 9.73661 9.63107 9.70748 9.59466 9.66501C9.5182 9.75481 9.54854 9.85069 9.54854 9.93442C9.5449 10.5436 9.54005 11.1517 9.55097 11.7609C9.5534 11.9417 9.51214 12.023 9.31432 12.0133C8.97694 11.9975 8.63835 11.9987 8.29976 12.0024C8.15413 12.0036 8.11529 11.9429 8.11529 11.8058C8.11893 10.4441 8.11893 9.08248 8.11529 7.72205C8.11529 7.56913 8.16383 7.51331 8.32039 7.51938C8.58252 7.52908 8.84709 7.54486 9.10558 7.51452C9.40291 7.48054 9.56432 7.61404 9.71845 7.84705C10.1323 8.47447 10.568 9.08734 10.9976 9.70506C11.0328 9.75603 11.0813 9.79972 11.1711 9.90044L11.1723 9.89923Z" fill="#F9F9F9"/>
</g>
</svg>
