<svg width="276" height="69" viewBox="0 0 276 69" fill="none" xmlns="http://www.w3.org/2000/svg">
<g clip-path="url(#clip0_73_81)">
<path d="M12.2663 5.36463C10.7843 9.26599 6.57057 13.4179 1.57122 15.8339C1.46409 15.9055 1.35696 15.9055 1.32125 15.8876L0.999866 15.5296C0.999866 15.5296 0.928447 15.3865 0.999866 15.3149C5.26717 12.4515 8.4989 8.72911 9.9987 5.25725C8.73101 5.25725 6.07064 5.31094 5.46357 5.36463C5.05291 5.38252 4.19588 5.54359 3.74951 5.68676C3.12459 5.45411 2.42825 5.0067 1.94617 4.59509C1.8569 4.52351 1.8569 4.45192 1.87475 4.38034L2.03545 4.0761C2.66037 4.20138 3.49954 4.23717 4.0709 4.23717C4.91007 4.23717 9.0524 4.16558 10.2487 4.094L11.0878 3.68239C11.195 3.6287 11.3914 3.6287 11.4985 3.68239C11.8199 3.82556 12.4091 4.14769 12.6055 4.29086C12.7305 4.36244 12.7305 4.46982 12.6769 4.61299L12.2663 5.32884V5.36463ZM18.1227 16.8898C18.0334 18.3036 17.8191 19.9321 17.5692 21.3996L18.0155 21.5786C18.1227 21.6501 18.1941 21.7396 18.1941 21.9007C18.1941 22.2765 18.0334 22.6165 17.8727 22.7597L9.37378 22.8671C9.32022 23.1176 9.21309 23.3324 9.0524 23.5113H7.98111C7.82041 23.1892 7.73114 22.7239 7.69543 22.2944L7.24906 16.8182C6.99909 16.5318 6.49916 16.2276 6.03493 16.0665L6.17777 15.5296C6.19562 15.4402 6.26704 15.4044 6.40988 15.4044C7.15978 15.4044 8.51675 15.5296 9.26665 15.637C10.8736 15.6191 14.391 15.5654 16.0158 15.476L16.855 15.1359C16.9799 15.0643 17.1406 15.0643 17.2478 15.1359C17.5513 15.2433 18.1048 15.5118 18.3191 15.6728C18.4083 15.7265 18.4083 15.8339 18.3905 15.9592L18.1048 16.8361L18.1227 16.8898ZM9.4452 21.6322C11.2128 21.6322 14.1053 21.5786 15.498 21.5249L15.9801 21.3817L16.0693 16.8182C13.9268 16.8182 11.4092 16.8898 9.32022 16.9613L9.42735 21.6322H9.4452ZM16.355 3.27078C15.9801 2.78758 15.2659 2.34018 14.4446 2.05384L14.6588 1.40957C14.6767 1.32009 14.7481 1.2843 14.9445 1.2843C15.8551 1.3022 17.3906 1.64222 18.1048 1.91067C18.3191 2.00015 18.3905 2.16121 18.3905 2.42966L18.3191 3.68239V10.3219C18.3191 11.7178 18.0869 13.4179 17.6941 14.3664H16.5514C16.4264 13.6148 16.3729 11.7894 16.3729 10.8766V3.27078H16.355Z" fill="#405772"/>
<path d="M41.9588 13.1673C42.8337 13.1852 44.1014 13.3463 44.6549 13.5432C44.8692 13.6148 44.9763 13.7579 44.9763 13.9906C44.9763 14.438 44.6728 14.8317 44.4228 14.9391C43.8157 14.8675 42.3874 14.8138 41.691 14.8138C40.9054 14.8138 38.1379 14.8317 35.299 14.8854V18.5899C35.299 19.8605 35.0133 22.3123 34.6562 23.5829H33.5492C33.4599 22.5628 33.3707 20.2721 33.3707 19.1805V14.9033C31.0317 14.9212 29.0141 14.9749 28.4784 14.9928C27.8714 15.0464 26.6394 15.2791 26.068 15.4581C25.1932 15.1717 24.3004 14.6348 23.6934 14.1158C23.6219 14.0443 23.6041 13.9727 23.6219 13.8832L23.8005 13.5253C24.6218 13.6684 25.7109 13.7579 26.4787 13.7758C27.9428 13.7937 39.477 13.6327 41.1018 13.5432L41.9767 13.1495L41.9588 13.1673ZM28.6391 7.29741C28.6391 4.5593 31.121 2.73389 34.2098 2.73389C37.2987 2.73389 39.7627 4.5414 39.7627 7.29741C39.7627 10.0534 37.2987 11.843 34.2098 11.843C31.121 11.843 28.6391 10.0355 28.6391 7.29741ZM30.621 7.29741C30.621 9.30178 32.2458 10.4292 34.2098 10.4292C36.1739 10.4292 37.8165 9.28388 37.8165 7.29741C37.8165 5.31093 36.1739 4.12979 34.2098 4.12979C32.2458 4.12979 30.621 5.29304 30.621 7.29741Z" fill="#405772"/>
<path d="M62.8847 1.42747C62.9383 1.3022 62.9918 1.2843 63.1882 1.2843C64.0453 1.3022 65.5094 1.60643 66.1522 1.89277C66.3664 1.98225 66.4557 2.14332 66.4378 2.41176L66.3664 3.57501V18.7152C66.3664 20.0574 66.1343 22.3481 65.7415 23.6724H64.6523C64.5452 22.7955 64.4738 20.3616 64.4738 19.3415V11.2883L61.6884 11.3419V17.3193C61.6884 18.6078 61.4563 20.809 61.0814 22.0617H60.0458C59.9387 21.1311 59.8672 18.8941 59.8672 17.9277V15.7086C57.4568 16.5318 54.3144 17.0866 52.1897 17.2119C51.8861 17.2656 51.6005 17.2656 51.3684 17.2656C50.5292 17.2656 49.9578 16.7824 49.69 16.0128C49.6186 15.7981 49.565 15.3865 49.565 14.9033V7.08266C49.2436 6.76053 48.708 6.49209 48.1545 6.36681L48.2973 5.77624C48.2973 5.77624 48.3866 5.66886 48.5473 5.66886C49.2436 5.66886 50.8506 5.74045 51.5469 5.82993C52.3682 5.81203 54.5465 5.72255 55.1 5.65097L55.6714 5.23935C56.1892 5.23935 57.0462 5.29304 57.4568 5.38252C57.6711 5.43621 57.7604 5.54359 57.7604 5.74045C57.7604 6.15206 57.6175 6.52788 57.4747 6.67105C57.4033 6.74263 57.2604 6.79632 57.1176 6.79632L51.4933 7.02897V10.5724C52.3682 10.5187 54.0466 10.4829 54.6715 10.4113L55.2964 10.0534C55.8499 10.0534 56.6712 10.0713 57.0819 10.1429C57.314 10.1608 57.4211 10.3219 57.4211 10.5187C57.4211 10.8945 57.314 11.2167 57.189 11.324C57.1176 11.3956 56.9748 11.4135 56.7962 11.4135L51.4755 11.6999V15.2612C51.4755 15.5654 51.6005 15.6728 51.8861 15.6728C53.993 15.6549 57.4569 15.2612 59.7958 14.6706V4.66668C59.4923 4.25506 58.8495 3.84345 58.171 3.6287L58.3853 3.02023C58.4389 2.93075 58.4924 2.87706 58.6888 2.87706C59.4744 2.89496 60.8314 3.1813 61.4206 3.46763C61.5992 3.55711 61.7063 3.70028 61.7063 3.95083L61.6349 4.98881V10.1071L64.4202 10.0534V3.19919C64.0631 2.73389 63.4025 2.32228 62.6348 2.03594L62.849 1.42747H62.8847Z" fill="#405772"/>
<path d="M92.4702 9.96394C90.5419 11.9683 88.1136 13.7937 85.4354 15.1538C85.3104 15.2254 85.2211 15.2254 85.1854 15.1717L84.8819 14.8854C84.8819 14.8854 84.8105 14.7422 84.8819 14.6527C88.8099 11.9683 91.8453 8.44277 93.3808 5.25725C92.1309 5.25725 89.6848 5.31094 89.1313 5.34673C88.685 5.36463 87.8458 5.52569 87.4351 5.70465C86.7923 5.45411 86.096 4.98881 85.5961 4.5593C85.5246 4.48772 85.5068 4.39823 85.5247 4.32665L85.6853 4.04031C86.3103 4.12979 87.1494 4.20138 87.7565 4.20138C88.5957 4.20138 92.7023 4.12979 93.7736 4.0761L94.5949 3.68239C94.7199 3.6287 94.8984 3.6287 95.0056 3.68239C95.3448 3.82556 95.9519 4.094 96.2197 4.23717C96.309 4.30875 96.3268 4.45192 96.2376 4.5593L95.7733 5.27515C95.1841 6.50998 94.3628 7.76271 93.3272 8.97965L95.4698 10.9482L96.4518 11.2704C96.7732 11.7357 97.2017 12.4336 97.3624 12.8452C97.5052 13.1316 97.5231 13.3642 97.4517 13.4716C97.3446 13.7758 96.8982 13.9906 96.5946 13.8653C96.434 13.8474 96.2197 13.6505 96.0769 13.4895L92.488 9.91025L92.4702 9.96394ZM102.272 19.2699C102.272 21.7575 100.094 23.5292 97.166 23.5292C94.2378 23.5292 92.0774 21.7575 92.0774 19.2699C92.0774 16.9255 94.2557 15.2433 97.166 15.2433C100.076 15.2433 102.272 16.9255 102.272 19.2699ZM100.255 19.2699C100.255 17.5877 98.9515 16.5318 97.166 16.5318C95.3805 16.5318 94.0771 17.6056 94.0771 19.2699C94.0771 20.9343 95.3805 22.0081 97.166 22.0081C98.9515 22.0081 100.255 20.9343 100.255 19.2699ZM98.7194 1.40957C98.7372 1.32009 98.8086 1.2843 99.005 1.2843C99.9156 1.3022 101.451 1.64222 102.165 1.91067C102.38 2.00015 102.469 2.16121 102.451 2.42966L102.38 3.68239V11.2167C102.38 12.4336 102.13 14.4022 101.755 15.4581H100.612C100.487 14.6527 100.433 12.7199 100.433 11.8072V9.01544C99.755 9.01544 98.9693 9.08703 98.5944 9.10493C98.1837 9.15861 97.5588 9.31968 97.1303 9.49864C96.5054 9.19441 95.9162 8.78279 95.4519 8.35329C95.3805 8.26381 95.327 8.19222 95.3984 8.10274L95.5412 7.8164C96.1304 7.90588 96.8089 7.94167 97.3981 7.94167C98.0409 7.95957 99.4157 7.94167 100.416 7.87009V3.27078C100.041 2.78758 99.3264 2.34018 98.5051 2.05384L98.7194 1.40957Z" fill="#405772"/>
<path d="M118.574 5.40042C118.663 5.32883 118.86 5.32883 118.967 5.40042C119.288 5.54359 119.877 5.86572 120.127 6.02679C120.199 6.09837 120.217 6.18785 120.181 6.33102L119.877 7.19004C119.824 9.44495 119.592 12.2368 119.324 14.5096L119.788 14.6885C119.895 14.7601 119.949 14.8496 119.949 14.9749C119.949 15.3686 119.824 15.7265 119.663 15.8518L111.896 15.9234C111.825 16.3171 111.682 16.675 111.521 16.9971H110.414C110.289 16.5855 110.236 15.9592 110.182 15.4581L109.7 7.13635C109.45 6.85001 108.95 6.58157 108.468 6.4205L108.611 5.82993C108.611 5.82993 108.7 5.72255 108.861 5.72255C109.629 5.72255 111.057 5.82993 111.807 5.9731C113.289 5.9731 116.289 5.9552 117.753 5.86572L118.592 5.40042H118.574ZM111.932 14.7243C113.467 14.7422 116.039 14.7064 117.253 14.6527L117.699 14.5096L117.77 7.08266C115.896 7.08266 113.646 7.10055 111.807 7.15424L111.95 14.7243H111.932ZM122.198 1.40957C122.216 1.32009 122.27 1.2843 122.484 1.2843C123.395 1.3022 124.948 1.64222 125.662 1.91067C125.894 2.00015 125.966 2.16121 125.966 2.42966L125.894 3.71818V18.5004C125.894 19.8963 125.644 22.2765 125.252 23.6724H124.145C124.038 22.7418 123.966 20.2005 123.966 19.1626V3.28867C123.573 2.76968 122.823 2.34018 122.02 2.03594L122.234 1.40957H122.198Z" fill="#405772"/>
<path d="M145.803 1.40957C145.856 1.32009 145.892 1.2843 146.088 1.2843C147.017 1.3022 148.57 1.64222 149.284 1.91067C149.499 2.00015 149.588 2.16121 149.57 2.42966L149.499 3.71818V18.5004C149.499 19.8963 149.266 22.2765 148.856 23.6724H147.749C147.659 22.7418 147.57 20.2005 147.57 19.1626V17.3551C144.642 18.0351 138.857 18.8225 135.804 18.9836C135.322 19.0015 134.34 19.2342 133.893 19.3952C133.054 19.0552 132.126 18.4646 131.483 17.9098C131.358 17.8204 131.34 17.7488 131.412 17.6593L131.554 17.3372C132.394 17.4803 133.429 17.5519 134.25 17.5519C137.732 17.4803 144.321 16.8719 147.57 16.2813V3.28867C147.195 2.76968 146.463 2.34018 145.624 2.03594L145.838 1.40957H145.803ZM143.553 5.68676C144.231 5.74045 145.249 5.86572 145.695 6.00889C145.838 6.06258 145.928 6.18785 145.928 6.34892C145.928 6.76053 145.624 7.17214 145.445 7.27952C144.981 7.22583 143.839 7.20793 143.303 7.20793C142.392 7.20793 136.661 7.29741 135.786 7.369C135.322 7.38689 134.483 7.54796 134.072 7.69113C133.393 7.44058 132.661 6.93949 132.161 6.52788C132.09 6.45629 132.072 6.36681 132.108 6.31312L132.269 6.00889C132.911 6.11627 133.876 6.18785 134.429 6.18785C135.411 6.20575 141.732 6.09837 142.803 6.02679L143.553 5.65097V5.68676ZM144.017 11.7893C144.017 13.9548 141.946 15.4044 139.303 15.4044C136.661 15.4044 134.572 13.9548 134.572 11.7893C134.572 9.62391 136.679 8.15643 139.303 8.15643C141.928 8.15643 144.017 9.60602 144.017 11.7893ZM135.875 2.93075C137.875 3.30657 139.91 3.37815 141.446 3.37815C141.66 3.37815 141.767 3.44974 141.821 3.59291C141.964 3.87925 141.91 4.43403 141.75 4.63088C141.66 4.73826 141.535 4.77405 141.41 4.77405C140.321 4.77405 138.625 4.82774 137.643 4.88143C137.411 4.89933 137.322 4.89933 137.179 4.79195C136.697 4.50561 136.107 3.93293 135.715 3.39605C135.661 3.28867 135.661 3.21709 135.697 3.1455L135.875 2.93075ZM142.124 11.7893C142.124 10.2861 140.892 9.37337 139.321 9.37337C137.75 9.37337 136.536 10.2861 136.536 11.7893C136.536 13.2926 137.768 14.2411 139.321 14.2411C140.875 14.2411 142.124 13.3284 142.124 11.7893Z" fill="#405772"/>
<path d="M75.7402 12.881C75.7402 12.1294 76.3294 11.5209 77.0615 11.5209C77.7935 11.5209 78.4006 12.1294 78.4006 12.881C78.4006 13.579 77.8114 14.1875 77.0615 14.1875C76.3116 14.1875 75.7402 13.579 75.7402 12.881Z" fill="#405772"/>
<path d="M237.755 11.682C235.809 13.3642 233.416 14.7959 230.827 15.7981C230.649 15.8697 230.524 15.8876 230.47 15.816L230.095 15.4223C230.006 15.3328 230.006 15.2075 230.095 15.1181C233.666 12.9526 236.523 10.0534 238.219 7.31533C236.916 7.33323 235.112 7.36902 234.63 7.40481C234.148 7.42271 233.309 7.58377 232.845 7.74484C232.131 7.42271 231.381 6.90372 230.881 6.40262C230.792 6.31314 230.792 6.22366 230.809 6.09839L230.988 5.77626C231.684 5.88364 232.595 5.93732 233.22 5.93732C234.059 5.93732 237.951 5.88364 239.112 5.79415L240.094 5.40044C240.255 5.34675 240.469 5.34675 240.63 5.40044C241.005 5.5615 241.737 5.91943 242.022 6.09839C242.165 6.18787 242.165 6.34894 242.076 6.49211L241.522 7.27954C240.88 8.3891 240.023 9.49866 238.987 10.5187L240.826 11.9146L241.879 12.1473C242.272 12.5947 242.79 13.2569 242.986 13.6685C243.147 13.9906 243.201 14.2411 243.129 14.4201C242.986 14.8675 242.451 15.1717 242.058 15.1002C241.844 15.0823 241.594 14.8854 241.379 14.7064L237.755 11.682ZM233.666 2.19703C235.648 2.57285 237.63 2.66233 239.058 2.66233C239.308 2.66233 239.433 2.71601 239.54 2.89498C239.719 3.235 239.665 4.00454 239.433 4.23719C239.344 4.34457 239.201 4.38036 239.023 4.38036C238.058 4.38036 236.416 4.43405 235.47 4.48773C235.22 4.48773 235.077 4.48773 234.916 4.38036C234.452 4.05823 233.845 3.37817 233.505 2.8055C233.434 2.66233 233.434 2.55495 233.488 2.46547L233.702 2.21492L233.666 2.19703ZM245.754 20.3437C246.575 20.3258 247.682 20.4153 248.236 20.5227C248.486 20.5943 248.646 20.7553 248.646 21.0059C248.646 21.6502 248.432 22.1155 248.271 22.2765C248.146 22.366 247.986 22.4197 247.825 22.4197L238.201 22.4913H238.183C236.452 22.4734 235.773 21.7933 235.773 20.3974V17.7488C235.398 17.4267 234.773 17.1045 234.166 16.8898L234.309 16.1918C234.327 16.0844 234.47 16.0129 234.648 16.0129C235.63 16.0129 237.362 16.1202 238.112 16.2992C238.398 16.3708 238.558 16.5498 238.558 16.854L238.505 18.0888V20.3258C238.505 20.7196 238.666 20.9164 239.058 20.9164C240.397 20.9343 243.486 20.9164 244.808 20.8448L245.736 20.3616L245.754 20.3437ZM249.003 8.78281C249.682 8.76492 250.682 8.80071 251.093 8.89019C251.378 8.94388 251.557 9.14074 251.575 9.40918C251.628 9.94607 251.485 10.4472 251.289 10.644C251.146 10.8051 250.843 10.8767 250.61 10.8767L246.968 10.9661V11.8431C246.968 13.6506 246.647 16.1023 246.093 17.4446H244.575C244.397 16.5676 244.29 13.7937 244.29 12.6305V3.07394C243.968 2.55495 243.254 2.05386 242.451 1.74962L242.736 0.908502C242.79 0.819021 242.861 0.747437 243.076 0.747437C244.165 0.801125 245.915 1.14115 246.718 1.49908C246.95 1.60645 247.075 1.82121 247.039 2.12544L246.95 3.50345V9.3376L248.218 9.26601L248.968 8.78281H249.003Z" fill="#405772"/>
<path d="M272.661 12.5231C273.643 12.541 275.036 12.7558 275.607 12.9705C275.839 13.06 276 13.2569 276 13.5074C276 14.098 275.607 14.617 275.304 14.7602C274.697 14.6886 273.107 14.6349 272.358 14.6349C271.608 14.6349 269.179 14.6528 266.626 14.6886V17.5877C266.626 19.0373 266.216 21.847 265.716 23.1713H264.234C264.091 22.1871 263.93 19.5026 263.93 18.3931V14.7244C261.948 14.7423 260.288 14.7959 259.77 14.8138C259.145 14.8675 257.752 15.1181 257.127 15.297C256.199 14.957 255.181 14.2591 254.521 13.6148C254.431 13.5432 254.413 13.4 254.449 13.3106L254.663 12.8989C255.574 13.06 256.77 13.1495 257.627 13.1853C259.163 13.2032 270.001 13.06 271.643 12.9526L272.643 12.5052L272.661 12.5231ZM259.377 6.88584C259.377 4.16562 261.877 2.25073 265.109 2.25073C268.34 2.25073 270.84 4.16562 270.84 6.88584C270.84 9.60606 268.358 11.5209 265.109 11.5209C261.859 11.5209 259.377 9.60606 259.377 6.88584ZM262.073 6.88584C262.073 8.60387 263.394 9.62395 265.109 9.62395C266.823 9.62395 268.18 8.60387 268.18 6.88584C268.18 5.16781 266.84 4.11193 265.109 4.11193C263.377 4.11193 262.073 5.14991 262.073 6.88584Z" fill="#405772"/>
<path d="M175.12 5.41834C175.12 5.41834 175.192 5.32886 175.334 5.32886C176.049 5.32886 177.245 5.5973 177.781 5.81205C177.959 5.88364 178.031 6.00891 178.013 6.20577L177.959 7.19006V18.572C177.959 19.6458 177.763 21.4712 177.459 22.545H176.602C176.513 21.8291 176.459 19.8784 176.459 19.0731V17.0151C174.21 17.534 169.782 18.1425 167.425 18.2678C167.05 18.2857 166.3 18.4646 165.961 18.5899C165.318 18.3215 164.604 17.8741 164.104 17.4446C164.014 17.373 163.997 17.3193 164.05 17.2477L164.157 16.9972C164.8 17.1045 165.604 17.1582 166.228 17.1582C168.907 17.1045 173.96 16.6392 176.459 16.1739V6.86793C176.156 6.47421 175.602 6.13419 174.959 5.90153L175.12 5.41834ZM165.8 11.1272C165.8 9.14074 167.496 7.67325 169.782 7.67325C172.067 7.67325 173.763 9.14074 173.763 11.1272C173.763 13.1137 172.067 14.5991 169.782 14.5991C167.496 14.5991 165.8 13.1316 165.8 11.1272ZM167.335 11.1272C167.335 12.5589 168.389 13.4716 169.782 13.4716C171.174 13.4716 172.21 12.5589 172.21 11.1272C172.21 9.69552 171.174 8.78282 169.782 8.78282C168.389 8.78282 167.335 9.69552 167.335 11.1272Z" fill="#405772"/>
<path d="M196.617 12.5768C196.617 14.8496 194.85 16.4782 192.439 16.4782C190.029 16.4782 188.226 14.8496 188.226 12.5768C188.226 10.304 190.011 8.67544 192.439 8.67544C194.868 8.67544 196.617 10.304 196.617 12.5768ZM195.064 12.5768C195.064 10.8767 193.939 9.83869 192.439 9.83869C190.94 9.83869 189.797 10.8767 189.797 12.5768C189.797 14.2769 190.94 15.297 192.439 15.297C193.939 15.297 195.064 14.2769 195.064 12.5768ZM202.474 12.2905C203.009 12.2905 203.741 12.2905 204.063 12.3799C204.241 12.4157 204.349 12.541 204.366 12.7021C204.366 13.0421 204.259 13.3284 204.152 13.4358C204.045 13.5074 203.884 13.5432 203.741 13.5432L200.742 13.6148V18.572C200.742 19.6458 200.545 21.4712 200.224 22.545H199.367C199.296 21.8291 199.242 19.8784 199.242 19.0731V6.86793C198.939 6.47421 198.367 6.13419 197.724 5.90153L197.885 5.41834C197.885 5.41834 197.957 5.32886 198.117 5.32886C198.814 5.32886 200.01 5.5973 200.563 5.81205C200.724 5.88364 200.795 6.00891 200.795 6.20577L200.742 7.19006V12.6842L201.902 12.6305L202.474 12.2905Z" fill="#405772"/>
<path d="M218.99 12.8274C219.668 12.8632 220.65 12.9705 221.061 13.1316C221.221 13.1674 221.311 13.2748 221.311 13.4537C221.311 13.7759 221.079 14.0801 220.882 14.1696C220.418 14.1159 219.311 14.0801 218.775 14.0801C217.525 14.0801 209.562 14.1517 208.598 14.2233C208.134 14.2591 207.187 14.4201 206.741 14.5633C206.063 14.3664 205.384 13.9548 204.92 13.579C204.866 13.5253 204.848 13.4537 204.866 13.3822L205.009 13.1137C205.634 13.2211 206.473 13.2927 207.062 13.3106C208.169 13.3285 217.061 13.2211 218.311 13.1316L218.99 12.8274ZM208.491 7.69117C208.241 7.45852 207.83 7.26166 207.402 7.13639L207.491 6.68899C207.491 6.68899 207.58 6.58161 207.687 6.58161C208.259 6.58161 209.544 6.65319 210.062 6.74268C211.348 6.76057 214.847 6.70688 215.794 6.65319L216.311 6.40265C216.793 6.40265 217.543 6.43844 217.936 6.49213C218.097 6.52792 218.168 6.6353 218.168 6.77847C218.168 7.1006 218.079 7.35115 217.99 7.44063C217.918 7.53011 217.829 7.548 217.704 7.548L210.026 7.65538V10.2861C210.026 10.5904 210.134 10.7156 210.437 10.7156C211.615 10.7335 214.829 10.6798 215.865 10.6261L216.383 10.3577C216.918 10.3398 217.722 10.3935 218.097 10.4651C218.24 10.4651 218.329 10.5725 218.329 10.7335C218.329 11.0557 218.222 11.2704 218.132 11.342C218.079 11.4136 217.99 11.4315 217.883 11.4315L210.169 11.5567C208.955 11.5746 208.491 11.0914 208.491 10.1251V7.69117ZM216.972 20.988C217.472 20.988 218.222 21.0417 218.579 21.1133C218.722 21.1491 218.811 21.2565 218.811 21.3996C218.811 21.7397 218.704 21.9902 218.615 22.0618C218.561 22.1334 218.472 22.1513 218.365 22.1513L210.33 22.205C209.205 22.205 208.848 21.847 208.848 21.0417V19.4132C208.616 19.1805 208.241 19.0194 207.848 18.93L207.902 18.5541C207.902 18.5541 207.991 18.4468 208.098 18.4468C208.634 18.4468 209.919 18.4826 210.419 18.5541C211.633 18.5541 214.972 18.5005 215.651 18.4647L215.972 18.3752C216.026 17.9636 216.043 17.0509 216.026 16.675C214.847 16.675 211.455 16.6929 210.741 16.7287C210.383 16.7287 209.705 16.8719 209.276 16.9972C208.723 16.7824 208.205 16.4603 207.812 16.1561C207.723 16.0845 207.723 16.0308 207.759 15.9592L207.866 15.7444C208.348 15.8518 209.08 15.9055 209.526 15.9055C210.491 15.9055 215.079 15.8518 216.168 15.816L216.722 15.5476C216.722 15.5476 216.918 15.5118 217.025 15.5476C217.222 15.6371 217.633 15.8339 217.811 15.9234C217.883 15.9771 217.883 16.0666 217.847 16.174L217.615 16.6572C217.579 17.1582 217.4 17.9994 217.258 18.411L217.597 18.572C217.597 18.572 217.686 18.6794 217.686 18.751C217.686 18.9837 217.597 19.1984 217.508 19.27L210.383 19.3595V20.9701C210.383 21.2028 210.491 21.3102 210.705 21.3102C211.973 21.3102 215.329 21.3102 216.418 21.2565L216.972 20.988Z" fill="#405772"/>
<path d="M75.7402 57.6215C75.7402 56.8698 76.3294 56.2614 77.0615 56.2614C77.7935 56.2614 78.4006 56.8698 78.4006 57.6215C78.4006 58.3194 77.8114 58.9279 77.0615 58.9279C76.3116 58.9279 75.7402 58.3194 75.7402 57.6215Z" fill="#405772"/>
<path d="M18.3726 57.1919C19.2475 57.2098 20.5152 57.3709 21.0687 57.5677C21.283 57.6214 21.3901 57.7825 21.3901 57.9793C21.3901 58.4267 21.0866 58.8384 20.8366 58.9636C20.2295 58.892 18.8011 58.8563 18.1048 58.8563C17.587 58.8563 16.1943 58.8562 14.516 58.8741V60.4848C14.516 61.5765 14.266 63.3482 13.9268 64.3504H12.8555C12.7126 63.4914 12.6412 61.8807 12.6412 60.968V58.892H9.83801V60.3595C9.83801 61.4333 9.58805 63.1334 9.2488 64.0998H8.17751C8.03467 63.2587 7.96326 61.7017 7.96326 60.8427V58.9636C6.42774 58.9815 5.23147 59.0173 4.85651 59.0352C4.24945 59.0889 3.01747 59.3216 2.44611 59.5005C1.57123 59.1963 0.678484 58.6594 0.07142 58.1583C6.6543e-07 58.0867 -0.0178542 57.9972 6.67758e-07 57.9078L0.178549 57.5498C0.999871 57.7109 2.08902 57.8004 2.85677 57.8004C4.32087 57.8183 15.8551 57.6751 17.4799 57.5677L18.3548 57.1919H18.3726ZM15.4266 66.1758C16.1408 66.1758 17.2121 66.2653 17.6941 66.3547C17.8727 66.4084 18.0155 66.5337 18.0155 66.7306C18.0155 67.2138 17.8548 67.5717 17.7298 67.6791C17.6406 67.7685 17.5156 67.7864 17.3906 67.7864L6.94553 67.858C5.39216 67.858 4.80295 67.2496 4.80295 65.9431V63.0618C4.428 62.7755 3.80308 62.4713 3.17816 62.346L3.321 61.7912C3.33885 61.6659 3.41027 61.6302 3.57097 61.6302C4.41014 61.6302 5.83853 61.7196 6.46345 61.8628C6.69556 61.9165 6.8384 62.0776 6.8384 62.346L6.78484 63.4377V66.0863C6.78484 66.48 6.92768 66.6769 7.33834 66.6769C8.89171 66.6948 13.1233 66.6769 14.5874 66.6053L15.4087 66.1579L15.4266 66.1758ZM5.10648 51.841C5.10648 49.2818 7.42761 47.4922 10.6236 47.4922C13.8196 47.4922 16.1408 49.2818 16.1408 51.841C16.1408 54.4001 13.8196 56.1897 10.6236 56.1897C7.42761 56.1897 5.10648 54.4001 5.10648 51.841ZM7.08837 51.841C7.08837 53.7558 8.62389 54.8833 10.6415 54.8833C12.6591 54.8833 14.1767 53.7379 14.1767 51.841C14.1767 49.944 12.6769 48.7628 10.6415 48.7628C8.60603 48.7628 7.08837 49.9261 7.08837 51.841Z" fill="#405772"/>
<path d="M36.5845 59.1784C36.9238 59.6974 37.388 60.5206 37.6023 60.9859C37.7451 61.308 37.7808 61.5407 37.7273 61.7018C37.5844 62.0239 37.1023 62.185 36.7988 62.0776C36.656 62.0239 36.406 61.827 36.2453 61.666L32.1208 57.3351C30.2104 59.5005 27.8178 61.5049 25.1753 63.0261C25.0503 63.0977 24.9968 63.0977 24.9253 63.044L24.5861 62.7397C24.5861 62.7397 24.5147 62.5966 24.604 62.5071C28.7284 59.3395 31.8887 55.2412 33.3171 51.5725C31.9959 51.5546 29.514 51.5904 28.9248 51.6441C28.4606 51.662 27.5857 51.8231 27.1393 52.002C26.4966 51.7515 25.8181 51.3041 25.336 50.8925C25.2467 50.8209 25.211 50.7314 25.2646 50.6598L25.4074 50.3735C26.0323 50.463 26.8894 50.5167 27.4786 50.5167C28.3535 50.5167 32.6743 50.463 33.7635 50.4272L34.5848 50.0335C34.7276 49.9798 34.9062 49.9798 35.0312 50.0335C35.3526 50.1766 35.9775 50.4451 36.2453 50.5882C36.3703 50.6777 36.3703 50.803 36.2632 50.9104L35.7811 51.6083C35.174 53.1653 34.2277 54.7759 32.9957 56.3329L35.549 58.7489L36.6381 59.1605L36.5845 59.1784ZM38.1915 46.3289C38.2093 46.2395 38.2629 46.2037 38.4772 46.2037C39.3878 46.2216 40.959 46.5616 41.6553 46.83C41.8874 46.9195 41.9588 47.0806 41.9588 47.349L41.8874 48.6376V63.4377C41.8874 64.8336 41.6375 67.2138 41.2447 68.6097H40.1377C40.0127 67.6791 39.9591 65.1378 39.9591 64.0998V48.2259C39.5663 47.707 38.8521 47.2774 38.0129 46.9732L38.2272 46.3468L38.1915 46.3289Z" fill="#405772"/>
<path d="M65.5272 63.3482C66.4021 63.3661 67.6698 63.5272 68.2233 63.724C68.4376 63.7956 68.5447 63.9388 68.5447 64.1356C68.5447 64.6009 68.2412 64.9947 67.9912 65.1199C67.3841 65.0483 65.9558 64.9947 65.2594 64.9947C63.6346 64.9947 53.3145 65.1199 52.029 65.1736C51.4219 65.2273 50.1899 65.4599 49.6186 65.6389C48.7437 65.3347 47.851 64.7978 47.2439 64.2967C47.1725 64.2251 47.1546 64.1535 47.1725 64.0641L47.351 63.7061C48.1545 63.8493 49.2615 63.9388 50.0114 63.9388C50.7077 63.9388 53.7252 63.9209 56.8319 63.8851V61.0754C54.2251 60.7533 52.4218 59.1963 52.4218 57.0488C52.4218 54.6328 54.6894 52.9505 57.7782 52.9505C60.8671 52.9505 63.1168 54.6328 63.1168 57.0488C63.1168 59.1963 61.3135 60.7533 58.7245 61.0754V63.8493C61.4563 63.7956 63.9203 63.7598 64.6166 63.7061L65.4915 63.3303L65.5272 63.3482ZM63.9203 50.1766C64.6345 50.1945 65.7236 50.3377 66.1879 50.4988C66.3486 50.5524 66.4378 50.6777 66.4378 50.8209C66.4378 51.2862 66.1879 51.6799 65.9915 51.8052C65.5094 51.7515 64.206 51.7336 63.6525 51.7336C62.3491 51.7336 54.2965 51.8052 53.0646 51.8768C52.6003 51.8947 51.6719 52.0915 51.2255 52.2347C50.5113 51.9841 49.69 51.483 49.1544 50.9998C49.0829 50.9462 49.0829 50.8567 49.1008 50.7851L49.2615 50.4809C50.0114 50.6061 51.0291 50.6956 51.6005 50.6956C52.8503 50.7135 61.6527 50.624 63.0633 50.5524L63.8846 50.1766H63.9203ZM53.7252 47.1343C56.0285 47.5101 58.6174 47.5817 60.4029 47.5459C60.6172 47.5459 60.7243 47.6175 60.7957 47.7606C60.9028 48.0112 60.885 48.6197 60.7243 48.8344C60.635 48.9776 60.51 48.9955 60.3493 48.9955C58.9745 48.9955 56.8676 49.0671 55.7071 49.1565C55.4571 49.1744 55.3321 49.1744 55.1714 49.0671C54.6358 48.7628 53.9573 48.1544 53.5466 47.5996C53.4752 47.5101 53.4752 47.4385 53.5288 47.3669L53.7073 47.1343H53.7252ZM57.7961 59.8227C59.7423 59.8227 61.2242 58.7847 61.2242 57.0845C61.2242 55.3844 59.7423 54.2927 57.7961 54.2927C55.8499 54.2927 54.368 55.3665 54.368 57.0845C54.368 58.8026 55.8499 59.8227 57.7961 59.8227Z" fill="#405772"/>
<path d="M95.6662 57.0667C95.7733 57.0846 95.8447 57.1561 95.8447 57.2993C95.8447 57.6214 95.7376 57.9436 95.6126 58.051C93.9343 58.0688 89.4884 58.1225 87.7744 58.1404C87.6851 58.6057 87.4887 58.91 87.3101 59.0889H86.2746C86.1139 58.6773 86.0424 58.051 86.0424 57.6214L85.8996 50.5704C85.6139 50.2661 85.0426 49.944 84.4891 49.8008L84.6498 49.1923C84.6498 49.1923 84.7747 49.085 84.9533 49.085C85.7032 49.085 87.0602 49.2281 87.6672 49.3892C87.8458 49.4429 87.9172 49.5682 87.9172 49.7829L87.8636 50.803V52.3063L93.5772 52.2347V49.5145C93.2915 49.1745 92.7559 48.8165 92.2024 48.6018L92.4166 48.0112C92.4345 47.9217 92.5059 47.868 92.7023 47.868C93.47 47.9217 94.7377 48.1723 95.3448 48.4049C95.5234 48.4765 95.5948 48.5839 95.5769 48.7986L95.5234 49.8187L95.4519 54.7223C95.4519 55.4202 95.327 56.2971 95.202 56.8698L95.6662 57.0309V57.0667ZM99.7728 60.6638C99.8978 60.5922 100.058 60.5922 100.166 60.6638C100.451 60.807 100.987 61.1112 101.165 61.2723C101.255 61.3438 101.255 61.4512 101.219 61.5765L100.933 62.3639L100.88 65.3705C100.88 66.3906 100.63 67.9833 100.326 68.8423H99.1479C99.0229 68.0907 98.9693 66.659 98.9693 65.8358V62.2565C97.1839 62.2565 92.8094 62.3281 91.8988 62.3997C91.3453 62.4176 90.3276 62.6145 89.792 62.7934C89.0242 62.5071 88.2386 62.0776 87.6851 61.6123C87.5958 61.5407 87.5601 61.4512 87.6137 61.3617L87.7744 61.0396C88.5243 61.147 89.4884 61.2186 90.1669 61.2186C91.256 61.2186 97.6838 61.1112 99.1479 60.9859L99.7907 60.6817L99.7728 60.6638ZM87.8636 53.5053V56.9414L93.5772 56.8698V53.3979L87.8636 53.4874V53.5053ZM103.201 53.1474C103.897 53.1295 104.844 53.1653 105.272 53.2727C105.504 53.3264 105.647 53.4874 105.665 53.6843C105.665 54.1317 105.522 54.5075 105.379 54.6149C105.236 54.7223 105.022 54.776 104.844 54.776L100.951 54.8475V55.8676C100.951 57.2814 100.701 58.9994 100.326 59.93H99.1657C99.0408 59.1605 99.005 57.353 99.005 56.4582V48.1723C98.6122 47.6891 97.898 47.2417 97.0767 46.9553L97.291 46.3111C97.3088 46.2216 97.3803 46.1858 97.5767 46.1858C98.5051 46.2037 100.041 46.5437 100.737 46.8122C100.951 46.9016 101.041 47.0627 101.023 47.3311L100.969 48.5839V53.6306L102.469 53.559L103.219 53.1116L103.201 53.1474Z" fill="#405772"/>
<path d="M119.074 50.5882C119.77 50.6061 120.77 50.7493 121.216 50.8925C121.377 50.9462 121.449 51.0714 121.449 51.2504C121.449 51.6978 121.163 52.0915 120.966 52.1989C120.556 52.1273 119.395 52.1094 118.86 52.1094C117.949 52.1094 112.45 52.2347 111.593 52.2884C111.128 52.3063 110.271 52.4673 109.861 52.6105C109.218 52.3242 108.45 51.8589 107.986 51.4294C107.897 51.3578 107.897 51.2683 107.915 51.2146L108.075 50.9104C108.754 51.0356 109.7 51.0893 110.236 51.0893C111.218 51.1072 117.342 50.9998 118.36 50.9283L119.11 50.5703L119.074 50.5882ZM124.002 58.8026C123.305 58.7847 122.377 58.8026 121.966 58.8563C121.52 58.91 120.949 59.0352 120.52 59.1784C120.038 58.9636 119.592 58.7131 119.199 58.4268C118.556 59.9658 116.878 60.8964 114.86 60.8964C112.218 60.8964 110.164 59.3574 110.164 56.9593C110.164 54.5612 112.2 53.0758 114.86 53.0758C117.521 53.0758 119.502 54.6149 119.502 56.9593C119.502 57.2098 119.485 57.4783 119.431 57.7288C119.877 57.7825 120.359 57.8004 120.77 57.8004C121.466 57.8004 123.002 57.7467 124.002 57.6572V54.6149C123.377 54.6149 122.591 54.6149 122.234 54.6686C121.824 54.7222 121.234 54.8475 120.824 54.9907C120.181 54.7044 119.592 54.3643 119.145 53.9885C119.074 53.899 119.056 53.8274 119.092 53.7559L119.235 53.4695C119.788 53.559 120.484 53.6127 121.074 53.6127C121.716 53.6127 123.055 53.559 124.002 53.4874V48.1901C123.609 47.707 122.895 47.2595 122.073 46.9732L122.288 46.3289C122.306 46.2395 122.377 46.2037 122.591 46.2037C123.502 46.2216 125.037 46.5616 125.734 46.83C125.948 46.9195 126.037 47.0806 126.037 47.349L125.966 48.6018V58.2836C125.966 59.9658 125.716 61.9523 125.323 63.1692H124.216C124.073 62.2565 124.038 60.0374 124.038 58.91V58.7847L124.002 58.8026ZM111.611 47.6533C113.61 48.0291 115.664 48.1007 117.181 48.1007C117.413 48.1007 117.503 48.1723 117.574 48.3154C117.681 48.6018 117.663 49.1565 117.485 49.3534C117.413 49.4787 117.306 49.4966 117.128 49.4966C116.056 49.4966 114.36 49.5503 113.36 49.6218C113.146 49.6397 113.039 49.6397 112.896 49.5503C112.414 49.246 111.825 48.6733 111.432 48.1365C111.378 48.047 111.378 47.9575 111.432 47.8859L111.593 47.6712L111.611 47.6533ZM114.86 59.6616C116.396 59.6616 117.628 58.6773 117.628 56.9593C117.628 55.2412 116.396 54.2569 114.86 54.2569C113.325 54.2569 112.093 55.2591 112.093 56.9593C112.093 58.6594 113.307 59.6616 114.86 59.6616ZM124.912 66.2653C125.627 66.2474 126.698 66.3369 127.18 66.4263C127.359 66.48 127.501 66.6053 127.501 66.8022C127.501 67.2854 127.341 67.6433 127.216 67.7507C127.126 67.8401 126.984 67.858 126.859 67.858L116.949 67.9296C115.342 67.9296 114.789 67.339 114.789 66.0505V63.8135C114.414 63.5093 113.771 63.2229 113.164 63.0977L113.271 62.5071C113.289 62.4176 113.396 62.346 113.557 62.346C114.396 62.346 115.824 62.4355 116.449 62.5966C116.681 62.6503 116.806 62.7755 116.806 63.0619V64.1535L116.788 66.1579C116.788 66.5516 116.949 66.7485 117.36 66.7485C118.806 66.7664 122.752 66.7485 124.091 66.6769L124.877 66.2653H124.912Z" fill="#405772"/>
<path d="M149.445 56.315C150.32 56.3687 151.588 56.5298 152.141 56.7088C152.355 56.7625 152.462 56.9235 152.462 57.1204C152.462 57.5678 152.159 57.9794 151.909 58.1047C151.302 58.0331 149.873 57.9794 149.177 57.9794C148.409 57.9794 145.678 57.9794 142.892 58.0331V59.1426C142.892 59.7869 142.767 60.6101 142.607 61.3081C144.088 61.2544 145.445 61.2365 146.035 61.1828L146.731 60.8786C146.82 60.807 147.017 60.807 147.124 60.8786C147.409 61.0038 147.945 61.326 148.124 61.487C148.213 61.5586 148.249 61.6481 148.177 61.7734L147.892 62.5608L147.838 65.3347C147.838 66.3548 147.588 67.9476 147.285 68.8066H146.106C145.999 68.0549 145.928 66.6232 145.928 65.8358V62.4892C144.088 62.4713 139.678 62.5071 138.732 62.5787C138.179 62.5966 137.125 62.7577 136.625 62.9545C135.857 62.6682 135.072 62.2387 134.518 61.7913C134.429 61.7018 134.393 61.6302 134.447 61.5407L134.608 61.1828C135.357 61.326 136.304 61.3976 137 61.3976C137.536 61.3976 139.232 61.3797 141.017 61.3439C140.964 60.7354 140.946 60.0732 140.946 59.5721V58.051C138.571 58.1047 136.482 58.1226 135.947 58.1762C135.34 58.2299 134.108 58.4626 133.536 58.6415C132.661 58.3373 131.769 57.8004 131.162 57.2993C131.09 57.2278 131.072 57.1383 131.09 57.0488L131.269 56.7088C132.072 56.8698 133.179 56.9593 133.929 56.9593C135.393 56.9772 146.927 56.8519 148.552 56.7267L149.427 56.3329L149.445 56.315ZM133.197 55.2055C133.197 55.2055 133.143 55.0444 133.251 54.9728C136.982 53.2011 139.893 50.7136 141.303 48.2439C141.089 47.9217 140.607 47.528 140.089 47.2596L140.41 46.7227C140.464 46.6332 140.553 46.5974 140.732 46.6332C141.642 46.7406 142.91 47.1522 143.464 47.4207C143.678 47.5459 143.767 47.707 143.767 47.9396C143.767 48.1902 143.696 48.3513 143.606 48.4944C143.303 49.0313 142.928 49.5324 142.517 50.0335L146.552 51.8947L148.195 52.0737C148.802 52.4316 149.606 52.9864 149.981 53.2906C150.266 53.5411 150.373 53.7559 150.356 53.917C150.356 54.2928 149.998 54.6149 149.713 54.6328C149.534 54.6328 149.231 54.5433 149.016 54.4181L141.66 50.9462C139.678 52.8969 136.929 54.5075 133.715 55.5455C133.572 55.5992 133.501 55.5992 133.465 55.5634L133.179 55.1697L133.197 55.2055Z" fill="#405772"/>
<path d="M244.111 45.8458C244.165 45.7563 244.236 45.6847 244.468 45.6847C245.558 45.7384 247.343 46.0784 248.182 46.4363C248.432 46.5437 248.521 46.7585 248.521 47.0627L248.414 48.4765V62.2207C248.414 63.7598 248.093 66.6232 247.539 68.1981H246.022C245.861 67.3391 245.736 64.1535 245.736 63.0619V61.147C242.933 61.7912 237.755 62.525 234.898 62.6861C234.345 62.7397 233.291 62.9366 232.791 63.1513C231.916 62.7397 230.863 61.9881 230.149 61.3438C230.06 61.2365 230.024 61.1649 230.077 61.0396L230.256 60.6459C231.184 60.7891 232.345 60.8606 233.256 60.8248C236.648 60.7533 242.897 60.2164 245.736 59.6616V48.0291C245.397 47.4922 244.665 46.9911 243.861 46.6511L244.111 45.8279V45.8458ZM232.131 53.4337C232.131 50.803 234.363 48.8702 237.451 48.8702C240.54 48.8702 242.808 50.803 242.808 53.4337C242.808 56.0645 240.558 58.033 237.451 58.033C234.345 58.033 232.131 56.1003 232.131 53.4337ZM234.827 53.4337C234.827 54.9907 235.916 56.0108 237.451 56.0108C238.987 56.0108 240.094 54.9907 240.094 53.4337C240.094 51.8768 239.005 50.8209 237.451 50.8209C235.898 50.8209 234.827 51.841 234.827 53.4337Z" fill="#405772"/>
<path d="M272.661 56.5835C273.643 56.6371 275.036 56.8161 275.607 57.0309C275.839 57.1203 276 57.3172 276 57.5677C276 58.1404 275.607 58.6773 275.304 58.8205C274.697 58.7489 273.107 58.7131 272.358 58.7131C271.893 58.7131 270.751 58.7131 269.34 58.731V60.0016C269.34 61.1112 269.019 62.8829 268.626 63.7956H267.144C266.965 63.044 266.84 61.4154 266.84 60.5922V58.7489H264.984V60.0732C264.984 61.147 264.662 62.7934 264.234 63.6882H262.752C262.573 62.9724 262.466 61.4691 262.466 60.6638V58.8205C261.163 58.8384 260.145 58.8742 259.77 58.8921C259.145 58.9458 257.752 59.1963 257.127 59.3753C256.199 59.0173 255.181 58.3373 254.521 57.693C254.431 57.6214 254.413 57.4783 254.449 57.3888L254.663 56.9951C255.574 57.1382 256.77 57.2277 257.627 57.2456C259.163 57.2635 270.001 57.1382 271.643 57.013L272.643 56.5656L272.661 56.5835ZM269.804 65.3347C270.572 65.3347 271.733 65.4242 272.268 65.5494C272.518 65.6031 272.679 65.7821 272.679 66.0147C272.679 66.6948 272.465 67.1243 272.304 67.2854C272.215 67.4106 272.018 67.4464 271.858 67.4464L261.288 67.518C259.609 67.5001 258.966 66.8201 258.966 65.4242V62.9545C258.592 62.6503 257.967 62.3102 257.36 62.1134L257.52 61.4154C257.538 61.3259 257.645 61.2365 257.842 61.2365C258.824 61.2365 260.538 61.3617 261.27 61.487C261.52 61.5765 261.68 61.7733 261.68 62.0776L261.627 63.3124V65.3347C261.627 65.7284 261.788 65.9252 262.18 65.9252C263.734 65.9431 267.287 65.9253 268.805 65.8537L269.751 65.3347H269.804ZM259.449 51.483C259.449 48.906 261.77 47.0448 265.162 47.0448C268.555 47.0448 270.894 48.906 270.894 51.483C270.894 54.0601 268.572 55.9034 265.162 55.9034C261.752 55.9034 259.449 54.0422 259.449 51.483ZM262.163 51.483C262.163 53.1295 263.394 54.1854 265.162 54.1854C266.93 54.1854 268.18 53.1474 268.18 51.483C268.18 49.8187 266.948 48.7449 265.162 48.7449C263.377 48.7449 262.163 49.7829 262.163 51.483Z" fill="#405772"/>
<path d="M175.12 50.3377C175.12 50.3377 175.192 50.2482 175.334 50.2482C176.049 50.2482 177.245 50.5167 177.781 50.7314C177.959 50.803 178.031 50.9283 178.013 51.1251L177.959 52.1094V63.4914C177.959 64.5652 177.763 66.3906 177.459 67.4643H176.602C176.513 66.7485 176.459 64.7978 176.459 63.9925V61.9344C174.21 62.4534 169.782 63.0619 167.425 63.1872C167.05 63.2051 166.3 63.384 165.961 63.5093C165.318 63.2408 164.604 62.7934 164.104 62.3639C164.014 62.2923 163.997 62.2387 164.05 62.1671L164.157 61.9165C164.8 62.0239 165.604 62.0776 166.228 62.0776C168.907 62.0239 173.96 61.5586 176.459 61.0933V51.7873C176.156 51.3936 175.602 51.0536 174.959 50.8209L175.12 50.3377ZM165.8 56.0466C165.8 54.0601 167.496 52.5926 169.782 52.5926C172.067 52.5926 173.763 54.0601 173.763 56.0466C173.763 58.0331 172.067 59.5184 169.782 59.5184C167.496 59.5184 165.8 58.051 165.8 56.0466ZM167.335 56.0466C167.335 57.4783 168.389 58.391 169.782 58.391C171.174 58.391 172.21 57.4783 172.21 56.0466C172.21 54.6149 171.174 53.7022 169.782 53.7022C168.389 53.7022 167.335 54.6149 167.335 56.0466Z" fill="#405772"/>
<path d="M211.598 55.1697C212.133 55.1697 212.865 55.1876 213.187 55.2592C213.365 55.3128 213.472 55.4381 213.49 55.5992C213.49 55.9392 213.383 56.2255 213.276 56.315C213.169 56.4045 213.008 56.4403 212.865 56.4403L209.973 56.494V56.9056C209.973 57.9257 209.776 59.1247 209.491 59.7332H208.616C208.544 59.3037 208.509 58.4984 208.473 57.8541C207.223 58.4447 205.581 58.9279 204.402 59.0889C204.188 59.1247 203.974 59.1247 203.813 59.1247C203.224 59.1247 202.831 58.7668 202.652 58.212C202.652 58.1762 202.617 58.1404 202.617 58.0868C201.76 58.6236 200.599 59.071 199.742 59.25C199.528 59.3037 199.314 59.3216 199.171 59.3216C198.599 59.3216 198.242 58.9816 198.082 58.4447C198.046 58.3015 198.01 58.051 198.01 57.7288V53.5948C197.814 53.3801 197.474 53.1832 197.117 53.0579L197.224 52.6105C197.224 52.6105 197.296 52.521 197.421 52.521C197.903 52.521 198.992 52.5747 199.456 52.6642C199.671 52.6642 200.153 52.5926 200.296 52.5389L200.635 52.3242C200.92 52.3242 201.438 52.3242 201.652 52.3779C201.795 52.4137 201.867 52.5031 201.867 52.6284C201.867 52.9684 201.795 53.2011 201.706 53.3085C201.652 53.3622 201.563 53.3801 201.474 53.3801L199.438 53.5232V57.7825C199.438 57.9973 199.51 58.0689 199.706 58.051C200.492 57.9615 201.688 57.6572 202.563 57.2814V53.4159C202.456 53.2011 202.242 53.0042 202.01 52.879L202.117 52.4853C202.117 52.4853 202.188 52.3779 202.295 52.3779C202.706 52.3779 203.599 52.4495 203.991 52.5389C204.295 52.5031 205.027 52.4495 205.223 52.3958L205.616 52.1094C205.973 52.1094 206.563 52.1094 206.83 52.181C206.991 52.181 207.045 52.2884 207.045 52.4137C207.045 52.7716 206.955 53.0221 206.866 53.1295C206.795 53.2011 206.705 53.219 206.616 53.219L203.974 53.3801V57.6036C203.974 57.8004 204.063 57.8899 204.277 57.8899C205.402 57.8004 207.223 57.4604 208.473 57.0488V51.7515C208.187 51.3936 207.652 51.0536 207.045 50.8388L207.205 50.3377C207.205 50.3377 207.295 50.2482 207.437 50.2482C208.116 50.2482 209.276 50.5167 209.794 50.7314C209.955 50.803 210.026 50.9283 210.009 51.1251L209.973 52.0736V55.5813L211.026 55.5276L211.598 55.1697ZM209.169 65.7284C209.669 65.7284 210.419 65.7821 210.776 65.8716C210.919 65.9074 211.008 65.9969 211.008 66.1579C211.008 66.4979 210.901 66.7664 210.812 66.838C210.741 66.9096 210.669 66.9275 210.544 66.9275L202.652 66.9811C201.617 66.9811 201.278 66.6232 201.278 65.7821V64.1893C201.045 63.9567 200.67 63.7956 200.26 63.6882L200.331 63.3303C200.331 63.3303 200.403 63.2229 200.51 63.2229C201.063 63.2229 202.349 63.2587 202.831 63.3124C203.866 63.3124 207.152 63.2766 207.848 63.2408L208.152 63.1514C208.205 62.7576 208.205 61.8092 208.187 61.4333C207.062 61.4333 203.938 61.4512 203.259 61.487C202.902 61.487 202.206 61.6302 201.777 61.7734C201.206 61.5407 200.688 61.2186 200.278 60.8964C200.206 60.8249 200.206 60.7712 200.224 60.6996L200.349 60.5027C200.831 60.5922 201.581 60.6459 202.027 60.6459C202.938 60.6459 207.259 60.6101 208.33 60.5564L208.902 60.288C208.902 60.288 209.098 60.2522 209.205 60.288C209.419 60.3775 209.83 60.5743 209.991 60.6817C210.062 60.7354 210.08 60.8249 210.026 60.9322L209.812 61.4154C209.776 61.9165 209.58 62.7755 209.437 63.1872L209.759 63.3482C209.759 63.3482 209.884 63.4556 209.884 63.5272C209.884 63.7598 209.794 63.9746 209.705 64.0641L202.795 64.1536V65.7463C202.795 65.979 202.902 66.0684 203.117 66.0684C204.402 66.0684 207.58 66.0684 208.616 66.0148L209.169 65.7284Z" fill="#405772"/>
</g>
<defs>
<clipPath id="clip0_73_81">
<rect width="276" height="68.077" fill="white" transform="translate(0 0.747437)"/>
</clipPath>
</defs>
</svg>
