<svg width="299" height="127" viewBox="0 0 299 127" fill="none" xmlns="http://www.w3.org/2000/svg">
<g clip-path="url(#clip0_1_3)">
<path d="M107.817 21.6688C105.533 26.4169 101.476 30.3041 93.9925 30.3041C85.6627 30.3041 78.4346 23.525 78.4346 15.1453C78.4346 6.76562 86.012 0 94.3822 0C98.9501 0 101.691 1.18365 105.292 3.55094L104.029 8.37969H103.733C100.643 3.47024 95.5376 0.215209 89.9889 1.39886C82.7607 2.95912 80.2215 11.137 82.5055 18.629C84.7894 26.0806 90.7547 29.8064 98.1977 28.6631C102 28.1116 105.238 25.6098 107.387 21.3864L107.831 21.6823L107.817 21.6688Z" fill="#4880C3"/>
<path d="M23.9281 30.3041H17.2105V30.0081C18.2719 28.9052 17.4254 27.3853 15.7326 24.5069L9.13593 12.8587L4.31269 17.8085V27.5063C4.31269 28.9859 4.60827 29.6181 5.23972 30.0081V30.3041H0V30.0081C0.671759 29.6315 0.967333 28.9859 0.967333 27.5063V3.51058C0.967333 1.99067 0.671759 1.39885 0 1.00878V0.672516H5.23972V1.00878C4.60827 1.38539 4.31269 1.97722 4.31269 3.51058V16.8132L13.153 7.6937C17.0492 3.63163 17.9763 2.28658 16.3641 1.02223V0.672516H21.8993V1.00878C19.79 2.11172 17.412 4.30416 13.6905 8.12411L11.3662 10.5856L18.5137 23.1215C20.838 27.1835 22.2352 28.6227 23.9281 30.0216V30.3175V30.3041Z" fill="#4880C3"/>
<path d="M30.3098 3.51058V27.5063C30.3098 28.9859 30.6053 29.6181 31.2771 30.0081V30.3041H26.0374V30.0081C26.6688 29.6315 26.9644 28.9859 26.9644 27.5063V3.51058C26.9644 2.03102 26.6688 1.39885 26.0374 1.00878V0.672516H31.2771V1.00878C30.6053 1.38539 30.3098 2.03102 30.3098 3.51058Z" fill="#4880C3"/>
<path d="M65.1069 3.51058V27.5063C65.1069 28.9859 65.4025 29.6181 66.0742 30.0081V30.3041H60.8345V30.0081C61.466 29.6315 61.8018 28.9859 61.8018 27.5063V1.93687L50.1267 22.1665H49.7505L37.6722 3.71234V25.2198C37.6722 27.0356 38.9352 29.2818 40.3324 30.0081V30.3041H34.6628V30.0081C36.06 29.2818 36.9333 27.049 36.9333 25.2198V2.89186L35.4286 0.672516H39.2307L50.9596 19.0191L61.7481 0.672516H66.0742V1.00878C65.4025 1.38539 65.1069 1.97722 65.1069 3.51058Z" fill="#4880C3"/>
<path d="M133.479 3.51058V27.5063C133.479 28.9859 133.774 29.6181 134.406 30.0081V30.3041H129.166V30.0081C129.838 29.6315 130.133 28.9859 130.133 27.5063V12.9125H115.422V27.5198C115.422 28.9994 115.717 29.6315 116.349 30.0216V30.3175H111.109V30.0216C111.781 29.645 112.076 28.9994 112.076 27.5198V3.51058C112.076 2.03102 111.781 1.39885 111.109 1.00878V0.672516H116.349V1.00878C115.717 1.38539 115.422 2.03102 115.422 3.51058V12.2131H130.133V3.51058C130.133 2.03102 129.838 1.39885 129.166 1.00878V0.672516H134.406V1.00878C133.774 1.38539 133.479 2.03102 133.479 3.51058Z" fill="#4880C3"/>
<path d="M161.934 30.3041H155.418V30.0082C156.52 28.9052 156.184 27.4257 155.002 24.332L152.933 18.9518H142.453L141.311 22.1665C139.954 26.0134 139.753 28.0847 141.526 29.9947V30.2906H136.139V29.9947C137.952 28.0847 139.188 26.1479 140.572 22.1665L146.914 3.90067L145.92 0.659088H149.265L157.514 22.1665C159.247 26.4034 160.349 28.0847 161.948 29.9947V30.2906L161.934 30.3041ZM152.798 18.2255L147.465 4.7884L142.561 18.2255H152.798Z" fill="#4880C3"/>
<path d="M190.471 0.672516V1.00878C189.073 1.73511 188.2 3.92755 188.2 5.75682V30.3041H187.166L167.053 4.51937V25.2198C167.053 27.0356 168.316 29.2818 169.754 30.0081V30.3041H164.044V30.0081C165.481 29.2818 166.354 27.049 166.354 25.2198V4.14276L164.044 0.672516H168.316L187.475 24.9642V5.74337C187.475 3.92755 186.212 1.72166 184.814 0.995329V0.672516H190.484H190.471Z" fill="#4880C3"/>
<path d="M229.876 8.79664L223.87 26.6186L225.308 30.3041H221.963L213.673 8.79664C213.673 8.79664 213.337 8.02996 213.163 7.65335L206.781 26.6186L208.178 30.3041H204.887L196.597 8.79664C194.864 4.60007 193.762 2.91876 192.163 1.00878V0.672516H198.679V1.00878C197.578 2.11172 197.914 3.59128 199.096 6.68491L206.217 25.7578L212.088 8.40658C212.262 7.8551 212.424 7.30363 212.598 6.79251C211.241 3.75269 210.637 2.6632 209.24 1.00878V0.672516H215.756V1.00878C214.654 2.11172 214.99 3.59128 216.172 6.68491L223.293 25.7578L229.164 8.40658C230.481 4.55972 231.005 2.91876 229.177 1.02223V0.672516H234.202V1.00878C232.388 2.91876 231.206 4.81528 229.849 8.79664H229.876Z" fill="#4880C3"/>
<path d="M265.345 15.4009C265.345 23.7402 258.372 30.5596 250.002 30.5596C241.632 30.5596 234.659 23.7402 234.659 15.4009C234.659 7.06152 241.632 0.242096 250.002 0.242096C258.372 0.242096 265.345 7.02117 265.345 15.4009ZM261.287 11.9306C259.003 4.47902 252.743 -0.497684 245.689 1.66785C238.622 3.81994 236.432 11.3791 238.716 18.8307C241 26.3227 247.261 31.2994 254.315 29.1339C261.381 26.9683 263.571 19.4226 261.287 11.9306Z" fill="#4880C3"/>
<path d="M299 15.4009C299 23.7402 292.027 30.5596 283.657 30.5596C275.287 30.5596 268.314 23.7402 268.314 15.4009C268.314 7.06152 275.287 0.242096 283.657 0.242096C292.027 0.242096 299 7.02117 299 15.4009ZM294.943 11.9306C292.659 4.47902 286.398 -0.497684 279.344 1.66785C272.277 3.81994 270.087 11.3791 272.371 18.8307C274.655 26.3227 280.916 31.2994 287.97 29.1339C295.037 26.9683 297.227 19.4226 294.943 11.9306Z" fill="#4880C3"/>
<path d="M139.82 72.2025H136.837V68.3018C136.072 70.9113 134.446 72.3774 131.611 72.3774C129.193 72.3774 126.828 71.2206 126.439 69.0954C125.941 66.0825 127.742 64.307 130.012 63.352C129.058 61.0789 130.16 57.9718 134.123 57.9718C136.582 57.9718 139.175 59.2765 139.175 62.9082V70.2522C139.175 71.2879 139.377 71.7317 139.82 72.0007V72.2025ZM136.837 67.1451V63.352C136.69 63.2982 135.977 63.083 135.064 63.083C131.839 63.083 127.473 64.2936 128.736 69.5124C129.126 71.113 130.832 71.7048 132.31 71.6241C134.876 71.4762 136.246 69.2837 136.837 67.1586V67.1451ZM130.469 63.1234C132.068 62.5316 133.68 62.4374 135.064 62.4374C135.749 62.4374 136.34 62.5585 136.837 62.7064V62.5047C136.837 60.2584 135.951 58.6578 133.855 58.6578C131.195 58.6578 129.582 60.7426 130.469 63.1368V63.1234Z" fill="#4880C3"/>
<path d="M156.493 72.0008V72.2025H152.825V72.0008C153.295 71.7317 153.416 70.8306 153.322 69.8621C153.228 68.8802 152.785 64.2801 152.637 62.7333C152.436 60.514 151.334 58.3754 148.795 58.8865C145.49 59.5321 144.858 66.1094 144.858 68.5978V70.2656C144.858 71.3013 145.06 71.7452 145.543 72.0142V72.216H141.876V72.0142C142.319 71.7452 142.52 71.3013 142.52 70.2656V60.2584C142.52 59.2227 142.426 58.9268 141.876 58.8327V58.6309L144.657 57.9853H144.858V64.186C145.234 61.1058 146.242 57.9853 150.084 57.9853C152.503 57.9853 154.572 59.6397 154.935 63.1906C155.23 66.0556 155.526 69.1761 155.647 70.2656C155.768 71.3282 156.036 71.7452 156.48 72.0142L156.493 72.0008Z" fill="#4880C3"/>
<path d="M172.656 72.2025H169.673V64.2667C169.109 67.6966 167.604 72.3774 163.466 72.3774C161.074 72.3774 158.119 70.306 157.998 66.5129C157.823 59.2093 164.621 57.9584 167.899 57.9584C168.585 57.9584 169.176 58.0794 169.673 58.2274V53.1296C169.673 52.0939 169.579 51.798 168.988 51.7039V51.4618L171.796 50.843H171.997V70.2253C171.997 71.261 172.199 71.7048 172.642 71.9738V72.1756L172.656 72.2025ZM169.673 61.3883V58.7654C169.525 58.7385 168.84 58.4964 167.899 58.4964C165.038 58.5502 159.892 59.4245 160.295 66.9702C160.443 69.5393 162.243 71.9469 164.783 71.4762C168.088 70.8306 169.659 63.8766 169.659 61.3883H169.673Z" fill="#4880C3"/>
<path d="M46.647 118.365C44.363 123.113 40.3055 127 32.8221 127C24.4923 127 17.2642 120.221 17.2642 111.841C17.2642 103.462 24.8282 96.6825 33.1983 96.6825C37.7663 96.6825 40.5071 97.8661 44.1077 100.233L42.8448 105.062H42.5492C39.4591 100.153 34.3538 96.8977 28.805 98.0814C21.5769 99.6416 19.0376 107.82 21.3216 115.312C23.6056 122.763 29.5708 126.489 37.0139 125.346C40.8161 124.794 44.054 122.292 46.2036 118.069L46.647 118.365Z" fill="#4880C3"/>
<path d="M281.736 97.0053V97.3416C280.339 98.0679 279.465 100.26 279.465 102.09V126.637H278.431L258.305 100.866V121.566C258.305 123.382 259.568 125.628 261.005 126.354V126.65H255.295V126.354C256.733 125.628 257.606 123.395 257.606 121.566V100.489L255.295 97.0188H259.568L278.726 121.31V102.09C278.726 100.274 277.463 98.0679 276.066 97.3416V97.0053H281.736Z" fill="#4880C3"/>
<path d="M71.8648 99.8434V123.839C71.8648 125.319 72.1604 125.951 72.7918 126.341V126.637H67.5521V126.341C68.2239 125.964 68.5194 125.332 68.5194 123.839V109.232H53.8079V123.839C53.8079 125.319 54.1035 125.951 54.7349 126.341V126.637H49.4952V126.341C50.167 125.964 50.4625 125.332 50.4625 123.839V99.8434C50.4625 98.3638 50.167 97.7316 49.4952 97.3416V97.0053H54.7349V97.3416C54.1035 97.7182 53.8079 98.3504 53.8079 99.8434V108.546H68.5194V99.8434C68.5194 98.3638 68.2239 97.7316 67.5521 97.3416V97.0053H72.7918V97.3416C72.1604 97.7182 71.8648 98.3504 71.8648 99.8434Z" fill="#4880C3"/>
<path d="M106.447 111.734C106.447 120.073 99.4741 126.892 91.104 126.892C82.7339 126.892 75.761 120.073 75.761 111.734C75.761 103.394 82.7339 96.5749 91.104 96.5749C99.4741 96.5749 106.447 103.354 106.447 111.734ZM102.39 108.263C100.106 100.812 93.8447 95.8351 86.7913 98.0006C79.7244 100.166 77.5344 107.712 79.8184 115.164C82.1024 122.655 88.3632 127.632 95.4167 125.467C102.484 123.315 104.674 115.755 102.39 108.263Z" fill="#4880C3"/>
<path d="M113.675 99.8434V123.839C113.675 125.319 113.971 125.951 114.642 126.341V126.637H109.403V126.341C110.034 125.964 110.33 125.332 110.33 123.839V99.8434C110.33 98.3638 110.034 97.7316 109.403 97.3416V97.0053H114.642V97.3416C113.971 97.7182 113.675 98.3504 113.675 99.8434Z" fill="#4880C3"/>
<path d="M152.234 97.0053V97.3416C150.877 98.0544 150.461 100.26 150.461 102.076V116.683C150.461 122.561 146.269 126.879 140.317 126.879C134.016 126.879 128.736 123.368 128.736 115.661V99.8299C128.736 98.31 128.44 97.7182 127.769 97.3281V96.9919H133.008V97.3281C132.377 97.7047 132.081 98.2966 132.081 99.8299V115.661C132.081 122.642 135.198 126.798 141.325 126.287C146.524 125.87 149.775 121.418 149.775 116.67V102.533C149.775 100.207 149.077 97.624 147.008 97.3281V96.9919H152.247L152.234 97.0053Z" fill="#4880C3"/>
<path d="M159.892 99.8434V123.839C159.892 125.319 160.188 125.951 160.859 126.341V126.637H155.62V126.341C156.251 125.964 156.547 125.332 156.547 123.839V99.8434C156.547 98.3638 156.251 97.7316 155.62 97.3416V97.0053H160.859V97.3416C160.188 97.7182 159.892 98.3504 159.892 99.8434Z" fill="#4880C3"/>
<path d="M188.428 97.0053V97.3416C186.48 98.996 185.553 99.8837 183.404 104.457L177.989 116.092V123.839C177.989 125.319 178.285 125.951 178.957 126.341V126.637H173.717V126.341C174.348 125.964 174.644 125.332 174.644 123.839V116.562C174.644 116.562 167.537 103.233 166.65 101.498C165.723 99.803 164.285 98.458 162.969 97.355V97.0188H170.372V97.355C169.27 98.458 169.27 100.233 170.882 103.233L177.25 115.567L183.001 103.341C184.774 99.3592 184.962 98.6194 183.444 97.355V97.0188H188.428V97.0053Z" fill="#4880C3"/>
<path d="M219.114 111.734C219.114 120.073 212.142 126.892 203.771 126.892C195.401 126.892 188.428 120.073 188.428 111.734C188.428 103.394 195.401 96.5749 203.771 96.5749C212.142 96.5749 219.114 103.354 219.114 111.734ZM215.057 108.263C212.773 100.812 206.512 95.8351 199.459 98.0006C192.392 100.166 190.202 107.712 192.486 115.164C194.77 122.655 201.031 127.632 208.084 125.467C215.151 123.315 217.341 115.755 215.057 108.263Z" fill="#4880C3"/>
<path d="M252.77 111.734C252.77 120.073 245.797 126.892 237.427 126.892C229.056 126.892 222.084 120.073 222.084 111.734C222.084 103.394 229.056 96.5749 237.427 96.5749C245.797 96.5749 252.77 103.354 252.77 111.734ZM248.712 108.263C246.428 100.812 240.167 95.8351 233.114 98.0006C226.047 100.166 223.857 107.712 226.141 115.164C228.425 122.655 234.686 127.632 241.739 125.467C248.806 123.315 250.996 115.755 248.712 108.263Z" fill="#4880C3"/>
</g>
<defs>
<clipPath id="clip0_1_3">
<rect width="299" height="127" fill="white"/>
</clipPath>
</defs>
</svg>
