<svg width="278" height="118" viewBox="0 0 278 118" fill="none" xmlns="http://www.w3.org/2000/svg">
<g clip-path="url(#clip0_1_3)">
<path d="M100.245 20.1332C98.1213 24.5448 94.3489 28.1565 87.3911 28.1565C79.6463 28.1565 72.9258 21.8579 72.9258 14.072C72.9258 6.28617 79.9711 0 87.7533 0C92.0005 0 94.5487 1.09977 97.8965 3.2993L96.7223 7.78585H96.4475C93.5744 3.22432 88.8276 0.199958 83.6686 1.29972C76.9481 2.74942 74.5872 10.3478 76.7108 17.3088C78.8343 24.2324 84.3806 27.6941 91.3009 26.6319C94.836 26.1195 97.8465 23.795 99.8452 19.8708L100.257 20.1457L100.245 20.1332Z" fill="#4880C3"/>
<path d="M22.2475 28.1565H16.0017V27.8816C16.9885 26.8568 16.2016 25.4446 14.6276 22.7702L8.49427 11.9475L4.0098 16.5465V25.5571C4.0098 26.9318 4.28461 27.5192 4.87171 27.8816V28.1565H0V27.8816C0.624579 27.5317 0.899393 26.9318 0.899393 25.5571V3.26182C0.899393 1.84962 0.624579 1.29974 0 0.937312V0.624878H4.87171V0.937312C4.28461 1.28724 4.0098 1.83712 4.0098 3.26182V15.6217L12.2293 7.1485C15.8518 3.3743 16.7137 2.12456 15.2147 0.949809V0.624878H20.3613V0.937312C18.4001 1.96209 16.1891 3.99916 12.7289 7.54841L10.5679 9.83543L17.2134 21.483C19.3744 25.2572 20.6736 26.5944 22.2475 27.8941V28.169V28.1565Z" fill="#4880C3"/>
<path d="M28.181 3.26182V25.5571C28.181 26.9318 28.4558 27.5192 29.0804 27.8816V28.1565H24.2087V27.8816C24.7958 27.5317 25.0706 26.9318 25.0706 25.5571V3.26182C25.0706 1.88711 24.7958 1.29974 24.2087 0.937312V0.624878H29.0804V0.937312C28.4558 1.28724 28.181 1.88711 28.181 3.26182Z" fill="#4880C3"/>
<path d="M60.5342 3.26182V25.5571C60.5342 26.9318 60.809 27.5192 61.4336 27.8816V28.1565H56.5618V27.8816C57.1489 27.5317 57.4612 26.9318 57.4612 25.5571V1.79963L46.6061 20.5956H46.2563L35.0264 3.44928V23.4325C35.0264 25.1197 36.2006 27.2067 37.4997 27.8816V28.1565H32.2283V27.8816C33.5274 27.2067 34.3393 25.1322 34.3393 23.4325V2.68694L32.9403 0.624878H36.4754L47.3805 17.6713L57.4113 0.624878H61.4336V0.937312C60.809 1.28724 60.5342 1.83712 60.5342 3.26182Z" fill="#4880C3"/>
<path d="M124.104 3.26182V25.5571C124.104 26.9318 124.379 27.5192 124.966 27.8816V28.1565H120.094V27.8816C120.719 27.5317 120.993 26.9318 120.993 25.5571V11.9975H107.315V25.5696C107.315 26.9443 107.59 27.5317 108.177 27.8941V28.169H103.305V27.8941C103.93 27.5442 104.205 26.9443 104.205 25.5696V3.26182C104.205 1.88711 103.93 1.29974 103.305 0.937312V0.624878H108.177V0.937312C107.59 1.28724 107.315 1.88711 107.315 3.26182V11.3476H120.993V3.26182C120.993 1.88711 120.719 1.29974 120.094 0.937312V0.624878H124.966V0.937312C124.379 1.28724 124.104 1.88711 124.104 3.26182Z" fill="#4880C3"/>
<path d="M150.561 28.1565H144.503V27.8816C145.527 26.8568 145.215 25.4821 144.115 22.6077L142.192 17.6088H132.448L131.386 20.5956C130.125 24.1699 129.937 26.0945 131.586 27.8691V28.144H126.577V27.8691C128.264 26.0945 129.413 24.2949 130.699 20.5956L136.595 3.62423L135.671 0.612366H138.781L146.451 20.5956C148.063 24.5323 149.087 26.0945 150.573 27.8691V28.144L150.561 28.1565ZM142.067 16.9339L137.108 4.44905L132.548 16.9339H142.067Z" fill="#4880C3"/>
<path d="M177.093 0.624878V0.937312C175.794 1.61217 174.982 3.64924 174.982 5.34888V28.1565H174.02L155.32 4.19912V23.4325C155.32 25.1197 156.494 27.2067 157.831 27.8816V28.1565H152.522V27.8816C153.859 27.2067 154.671 25.1322 154.671 23.4325V3.8492L152.522 0.624878H156.494L174.307 23.1951V5.33638C174.307 3.64924 173.133 1.59967 171.834 0.924814V0.624878H177.106H177.093Z" fill="#4880C3"/>
<path d="M213.731 8.17328L208.147 24.7323L209.484 28.1565H206.373L198.666 8.17328C198.666 8.17328 198.354 7.46093 198.191 7.111L192.258 24.7323L193.557 28.1565H190.497L182.789 8.17328C181.178 4.27411 180.153 2.71194 178.667 0.937312V0.624878H184.725V0.937312C183.701 1.96209 184.013 3.3368 185.113 6.21119L191.733 23.9324L197.192 7.81086C197.354 7.29846 197.504 6.78607 197.667 6.31117C196.405 3.48677 195.843 2.47449 194.544 0.937312V0.624878H200.602V0.937312C199.578 1.96209 199.89 3.3368 200.989 6.21119L207.61 23.9324L213.069 7.81086C214.293 4.23661 214.78 2.71194 213.081 0.949809V0.624878H217.753V0.937312C216.067 2.71194 214.967 4.47406 213.706 8.17328H213.731Z" fill="#4880C3"/>
<path d="M246.709 14.3095C246.709 22.0578 240.225 28.394 232.443 28.394C224.661 28.394 218.178 22.0578 218.178 14.3095C218.178 6.5611 224.661 0.224945 232.443 0.224945C240.225 0.224945 246.709 6.52361 246.709 14.3095ZM242.936 11.0851C240.813 4.16161 234.992 -0.462409 228.433 1.54966C221.863 3.54924 219.827 10.5728 221.95 17.4963C224.074 24.4573 229.895 29.0813 236.453 27.0693C243.024 25.0572 245.06 18.0462 242.936 11.0851Z" fill="#4880C3"/>
<path d="M278 14.3095C278 22.0578 271.517 28.394 263.735 28.394C255.952 28.394 249.469 22.0578 249.469 14.3095C249.469 6.5611 255.952 0.224945 263.735 0.224945C271.517 0.224945 278 6.52361 278 14.3095ZM274.228 11.0851C272.104 4.16161 266.283 -0.462409 259.725 1.54966C253.154 3.54924 251.118 10.5728 253.242 17.4963C255.365 24.4573 261.186 29.0813 267.744 27.0693C274.315 25.0572 276.351 18.0462 274.228 11.0851Z" fill="#4880C3"/>
<path d="M130 67.0858H127.227V63.4616C126.515 65.886 125.003 67.2483 122.367 67.2483C120.119 67.2483 117.92 66.1735 117.558 64.1989C117.096 61.3995 118.77 59.7498 120.881 58.8625C119.994 56.7505 121.018 53.8636 124.703 53.8636C126.989 53.8636 129.4 55.0758 129.4 58.4501V65.2737C129.4 66.236 129.588 66.6484 130 66.8983V67.0858ZM127.227 62.3868V58.8625C127.089 58.8125 126.427 58.6126 125.578 58.6126C122.58 58.6126 118.52 59.7373 119.694 64.5863C120.057 66.0735 121.643 66.6234 123.017 66.5484C125.403 66.4109 126.677 64.3739 127.227 62.3993V62.3868ZM121.306 58.6501C122.792 58.1002 124.291 58.0127 125.578 58.0127C126.215 58.0127 126.764 58.1252 127.227 58.2627V58.0752C127.227 55.9881 126.402 54.501 124.454 54.501C121.98 54.501 120.481 56.438 121.306 58.6626V58.6501Z" fill="#4880C3"/>
<path d="M145.502 66.8983V67.0858H142.092V66.8983C142.529 66.6484 142.641 65.8111 142.554 64.9113C142.466 63.999 142.054 59.7249 141.917 58.2877C141.729 56.2256 140.705 54.2385 138.344 54.7134C135.271 55.3133 134.684 61.4245 134.684 63.7365V65.2862C134.684 66.2485 134.872 66.6609 135.321 66.9108V67.0983H131.911V66.9108C132.323 66.6609 132.511 66.2485 132.511 65.2862V55.9881C132.511 55.0259 132.423 54.7509 131.911 54.6634V54.476L134.497 53.8761H134.684V59.6374C135.034 56.7755 135.971 53.8761 139.543 53.8761C141.792 53.8761 143.716 55.4133 144.053 58.7126C144.328 61.3745 144.602 64.2739 144.715 65.2862C144.827 66.2735 145.077 66.6609 145.489 66.9108L145.502 66.8983Z" fill="#4880C3"/>
<path d="M160.529 67.0858H157.756V59.7123C157.231 62.8992 155.832 67.2483 151.985 67.2483C149.761 67.2483 147.013 65.3237 146.901 61.7994C146.739 55.0133 153.059 53.8511 156.107 53.8511C156.744 53.8511 157.294 53.9636 157.756 54.101V49.3645C157.756 48.4022 157.669 48.1273 157.119 48.0398V47.8149L159.73 47.24H159.917V65.2487C159.917 66.211 160.105 66.6234 160.517 66.8733V67.0608L160.529 67.0858ZM157.756 57.0379V54.6009C157.619 54.5759 156.982 54.351 156.107 54.351C153.447 54.401 148.662 55.2133 149.037 62.2243C149.174 64.6113 150.848 66.8483 153.209 66.4109C156.282 65.8111 157.744 59.3499 157.744 57.0379H157.756Z" fill="#4880C3"/>
<path d="M43.3707 109.977C41.2472 114.388 37.4747 118 30.5169 118C22.7721 118 16.0517 111.701 16.0517 103.916C16.0517 96.1298 23.0844 89.8311 30.8667 89.8311C35.1138 89.8311 37.6621 90.9309 41.0098 93.1304L39.8356 97.6169H39.5608C36.6877 93.0554 31.9409 90.031 26.7819 91.1308C20.0615 92.5805 17.7006 100.179 19.8241 107.14C21.9477 114.063 27.4939 117.525 34.4143 116.463C37.9494 115.951 40.9599 113.626 42.9585 109.702L43.3707 109.977Z" fill="#4880C3"/>
<path d="M261.948 90.1309V90.4433C260.649 91.1182 259.837 93.1552 259.837 94.8549V117.663H258.875L240.163 93.7176V112.951C240.163 114.638 241.337 116.725 242.674 117.4V117.675H237.365V117.4C238.701 116.725 239.513 114.651 239.513 112.951V93.3677L237.365 90.1434H241.337L259.15 112.714V94.8549C259.15 93.1677 257.976 91.1182 256.677 90.4433V90.1309H261.948Z" fill="#4880C3"/>
<path d="M66.8174 92.7678V115.063C66.8174 116.438 67.0922 117.025 67.6793 117.388V117.663H62.8076V117.388C63.4322 117.038 63.707 116.45 63.707 115.063V101.491H50.0287V115.063C50.0287 116.438 50.3036 117.025 50.8907 117.388V117.663H46.019V117.388C46.6435 117.038 46.9183 116.45 46.9183 115.063V92.7678C46.9183 91.3931 46.6435 90.8057 46.019 90.4433V90.1309H50.8907V90.4433C50.3036 90.7932 50.0287 91.3806 50.0287 92.7678V100.854H63.707V92.7678C63.707 91.3931 63.4322 90.8057 62.8076 90.4433V90.1309H67.6793V90.4433C67.0922 90.7932 66.8174 91.3806 66.8174 92.7678Z" fill="#4880C3"/>
<path d="M98.9707 103.815C98.9707 111.564 92.4876 117.9 84.7054 117.9C76.9231 117.9 70.44 111.564 70.44 103.815C70.44 96.0671 76.9231 89.731 84.7054 89.731C92.4876 89.731 98.9707 96.0296 98.9707 103.815ZM95.1983 100.591C93.0747 93.6676 87.2536 89.0436 80.6956 91.0557C74.125 93.0678 72.0889 100.079 74.2124 107.002C76.336 113.963 82.1571 118.587 88.7152 116.575C95.2857 114.576 97.3218 107.552 95.1983 100.591Z" fill="#4880C3"/>
<path d="M105.691 92.7678V115.063C105.691 116.438 105.966 117.025 106.591 117.388V117.663H101.719V117.388C102.306 117.038 102.581 116.45 102.581 115.063V92.7678C102.581 91.3931 102.306 90.8057 101.719 90.4433V90.1309H106.591V90.4433C105.966 90.7932 105.691 91.3806 105.691 92.7678Z" fill="#4880C3"/>
<path d="M141.542 90.1309V90.4433C140.28 91.1057 139.893 93.1553 139.893 94.8424V108.415C139.893 113.876 135.996 117.888 130.462 117.888C124.603 117.888 119.694 114.626 119.694 107.465V92.7554C119.694 91.3431 119.419 90.7933 118.795 90.4308V90.1184H123.667V90.4308C123.079 90.7808 122.805 91.3307 122.805 92.7554V107.465C122.805 113.951 125.703 117.813 131.399 117.338C136.233 116.95 139.256 112.814 139.256 108.402V95.2673C139.256 93.1053 138.606 90.7058 136.683 90.4308V90.1184H141.555L141.542 90.1309Z" fill="#4880C3"/>
<path d="M148.662 92.7678V115.063C148.662 116.438 148.937 117.025 149.562 117.388V117.663H144.69V117.388C145.277 117.038 145.552 116.45 145.552 115.063V92.7678C145.552 91.3931 145.277 90.8057 144.69 90.4433V90.1309H149.562V90.4433C148.937 90.7932 148.662 91.3806 148.662 92.7678Z" fill="#4880C3"/>
<path d="M175.194 90.1309V90.4433C173.383 91.9805 172.521 92.8053 170.522 97.0544L165.488 107.865V115.063C165.488 116.438 165.763 117.025 166.388 117.388V117.663H161.516V117.388C162.103 117.038 162.378 116.45 162.378 115.063V108.302C162.378 108.302 155.77 95.9172 154.945 94.305C154.084 92.7303 152.747 91.4806 151.523 90.4558V90.1434H158.406V90.4558C157.381 91.4806 157.381 93.1303 158.88 95.9172L164.801 107.377L170.148 96.0171C171.797 92.3179 171.971 91.6306 170.56 90.4558V90.1434H175.194V90.1309Z" fill="#4880C3"/>
<path d="M203.725 103.815C203.725 111.564 197.242 117.9 189.46 117.9C181.677 117.9 175.194 111.564 175.194 103.815C175.194 96.0671 181.677 89.731 189.46 89.731C197.242 89.731 203.725 96.0296 203.725 103.815ZM199.953 100.591C197.829 93.6676 192.008 89.0436 185.45 91.0557C178.879 93.0678 176.843 100.079 178.967 107.002C181.09 113.963 186.911 118.587 193.47 116.575C200.04 114.576 202.076 107.552 199.953 100.591Z" fill="#4880C3"/>
<path d="M235.016 103.815C235.016 111.564 228.533 117.9 220.751 117.9C212.969 117.9 206.486 111.564 206.486 103.815C206.486 96.0671 212.969 89.731 220.751 89.731C228.533 89.731 235.016 96.0296 235.016 103.815ZM231.244 100.591C229.12 93.6676 223.299 89.0436 216.741 91.0557C210.171 93.0678 208.135 100.079 210.258 107.002C212.382 113.963 218.203 118.587 224.761 116.575C231.331 114.576 233.368 107.552 231.244 100.591Z" fill="#4880C3"/>
</g>
<defs>
<clipPath id="clip0_1_3">
<rect width="278" height="118" fill="white"/>
</clipPath>
</defs>
</svg>
